<svg xmlns="http://www.w3.org/2000/svg" xmlns:xlink="http://www.w3.org/1999/xlink" viewBox="0 0 50 50" version="1.1" width="100" height="100" fill="#000000">
<g id="surface1">
<path style=" " d="M 10 2 C 8.355469 2 7 3.355469 7 5 L 7 45 C 7 46.644531 8.355469 48 10 48 L 40 48 C 41.644531 48 43 46.644531 43 45 L 43 5 C 43 3.355469 41.644531 2 40 2 Z M 10 4 L 40 4 C 40.566406 4 41 4.433594 41 5 L 41 45 C 41 45.566406 40.566406 46 40 46 L 10 46 C 9.433594 46 9 45.566406 9 45 L 9 5 C 9 4.433594 9.433594 4 10 4 Z M 25 8 C 24.449219 8 24 8.449219 24 9 C 24 9.515625 24.265625 10.148438 24.53125 10.667969 C 24.082031 10.347656 23.492188 10 23 10 C 22.449219 10 22 10.449219 22 11 C 22 11.550781 22.449219 12 23 12 C 23.726563 12 24.367188 11.667969 24.769531 11.429688 C 24.625 12.011719 24.230469 13.554688 24 14 L 26 14 C 25.769531 13.558594 25.390625 12.042969 25.238281 11.441406 C 25.65625 11.675781 26.304688 12 27 12 C 27.550781 12 28 11.550781 28 11 C 28 10.449219 27.550781 10 27 10 C 26.492188 10 25.9375 10.308594 25.511719 10.609375 C 25.757813 10.117188 26 9.507813 26 9 C 26 8.449219 25.550781 8 25 8 Z M 24 36 C 24.230469 36.445313 24.625 37.988281 24.769531 38.570313 C 24.367188 38.332031 23.726563 38 23 38 C 22.449219 38 22 38.449219 22 39 C 22 39.550781 22.449219 40 23 40 C 23.492188 40 24.082031 39.652344 24.53125 39.332031 C 24.265625 39.851563 24 40.484375 24 41 C 24 41.550781 24.449219 42 25 42 C 25.550781 42 26 41.550781 26 41 C 26 40.492188 25.757813 39.882813 25.511719 39.390625 C 25.9375 39.691406 26.492188 40 27 40 C 27.550781 40 28 39.550781 28 39 C 28 38.449219 27.550781 38 27 38 C 26.304688 38 25.65625 38.324219 25.238281 38.558594 C 25.390625 37.957031 25.769531 36.441406 26 36 Z "/>
</g>
</svg>