<?xml version="1.0" encoding="utf-8"?>
<!-- Generator: Adobe Illustrator 22.0.1, SVG Export Plug-In . SVG Version: 6.00 Build 0)  -->
<svg version="1.1" id="Layer_1" xmlns="http://www.w3.org/2000/svg" xmlns:xlink="http://www.w3.org/1999/xlink" x="0px" y="0px"
	 viewBox="0 0 72 92" style="enable-background:new 0 0 72 92;" xml:space="preserve">
<g id="surface1">
	<path d="M6-0.1c-3.3,0-6,2.7-6,6v80c0,3.3,2.7,6,6,6h60c3.3,0,6-2.7,6-6v-80c0-3.3-2.7-6-6-6H6z M6,3.9h60c1.1,0,2,0.9,2,2v80
		c0,1.1-0.9,2-2,2H6c-1.1,0-2-0.9-2-2v-80C4,4.8,4.9,3.9,6,3.9z M36,11.9c-1.1,0-2,0.9-2,2c0,1,0.5,2.3,1.1,3.3
		c-0.9-0.6-2.1-1.3-3.1-1.3c-1.1,0-2,0.9-2,2s0.9,2,2,2c1.5,0,2.7-0.7,3.5-1.1C35.2,20,34.5,23,34,23.9h4c-0.5-0.9-1.2-3.9-1.5-5.1
		c0.8,0.5,2.1,1.1,3.5,1.1c1.1,0,2-0.9,2-2s-0.9-2-2-2c-1,0-2.1,0.6-3,1.2c0.5-1,1-2.2,1-3.2C38,12.8,37.1,11.9,36,11.9z M34,67.9
		c0.5,0.9,1.2,4,1.5,5.1c-0.8-0.5-2.1-1.1-3.5-1.1c-1.1,0-2,0.9-2,2s0.9,2,2,2c1,0,2.2-0.7,3.1-1.3c-0.5,1-1.1,2.3-1.1,3.3
		c0,1.1,0.9,2,2,2s2-0.9,2-2c0-1-0.5-2.2-1-3.2c0.9,0.6,2,1.2,3,1.2c1.1,0,2-0.9,2-2s-0.9-2-2-2c-1.4,0-2.7,0.6-3.5,1.1
		c0.3-1.2,1.1-4.2,1.5-5.1H34z"/>
</g>
</svg>
