<svg xmlns="http://www.w3.org/2000/svg" xmlns:xlink="http://www.w3.org/1999/xlink" viewBox="0 0 50 50" version="1.1" width="100" height="100" fill="#000000">
<g id="surface1">
<path style=" " d="M 10 2 C 8.355469 2 7 3.355469 7 5 L 7 45 C 7 46.644531 8.355469 48 10 48 L 40 48 C 41.644531 48 43 46.644531 43 45 L 43 5 C 43 3.355469 41.644531 2 40 2 Z M 10 4 L 40 4 C 40.566406 4 41 4.433594 41 5 L 41 45 C 41 45.566406 40.566406 46 40 46 L 10 46 C 9.433594 46 9 45.566406 9 45 L 9 5 C 9 4.433594 9.433594 4 10 4 Z M 23.5 8 C 22.671875 8 22 8.671875 22 9.5 C 22 12 25 14 25 14 C 25 14 28 12.0625 28 9.5 C 28 8.671875 27.328125 8 26.5 8 C 25.671875 8 25 9.171875 25 10 C 25 9.171875 24.328125 8 23.5 8 Z M 25 36 C 25 36 22 37.9375 22 40.5 C 22 41.328125 22.671875 42 23.5 42 C 24.328125 42 25 40.828125 25 40 C 25 40.828125 25.671875 42 26.5 42 C 27.328125 42 28 41.328125 28 40.5 C 28 38 25 36 25 36 Z "/>
</g>
</svg>