<svg xmlns="http://www.w3.org/2000/svg" xmlns:xlink="http://www.w3.org/1999/xlink" viewBox="0 0 50 50" version="1.1" width="100" height="100" fill="#000000">
<g id="surface1">
<path style=" " d="M 10 2 C 8.355469 2 7 3.355469 7 5 L 7 45 C 7 46.644531 8.355469 48 10 48 L 40 48 C 41.644531 48 43 46.644531 43 45 L 43 5 C 43 3.355469 41.644531 2 40 2 Z M 10 4 L 40 4 C 40.566406 4 41 4.433594 41 5 L 41 45 C 41 45.566406 40.566406 46 40 46 L 10 46 C 9.433594 46 9 45.566406 9 45 L 9 5 C 9 4.433594 9.433594 4 10 4 Z M 25 8 C 25 8 21.996094 10.070313 22 11.515625 C 22 11.535156 22.003906 11.550781 22.003906 11.566406 C 22.003906 11.582031 22 11.597656 22 11.609375 C 22 12.378906 22.671875 13 23.5 13 C 23.984375 13 24.402344 12.777344 24.675781 12.445313 C 24.480469 13.351563 24.191406 14.628906 24 15 L 26 15 C 25.808594 14.632813 25.527344 13.367188 25.332031 12.453125 C 25.605469 12.777344 26.019531 13 26.5 13 C 27.328125 13 28 12.378906 28 11.609375 C 28 11.59375 27.996094 11.578125 27.996094 11.5625 C 27.996094 11.542969 28 11.527344 28 11.507813 C 27.996094 10.058594 25 8 25 8 Z M 25 21 C 25 21 21.996094 23.070313 22 24.515625 C 22 24.535156 22.003906 24.550781 22.003906 24.566406 C 22.003906 24.582031 22 24.597656 22 24.609375 C 22 25.378906 22.671875 26 23.5 26 C 23.984375 26 24.402344 25.777344 24.675781 25.445313 C 24.480469 26.351563 24.191406 27.628906 24 28 L 26 28 C 25.808594 27.632813 25.527344 26.367188 25.332031 25.453125 C 25.605469 25.777344 26.019531 26 26.5 26 C 27.328125 26 28 25.378906 28 24.609375 C 28 24.59375 27.996094 24.578125 27.996094 24.5625 C 27.996094 24.542969 28 24.527344 28 24.507813 C 27.996094 23.058594 25 21 25 21 Z M 24 35 C 24.195313 35.371094 24.480469 36.648438 24.675781 37.554688 C 24.402344 37.222656 23.984375 37 23.5 37 C 22.671875 37 22 37.621094 22 38.390625 C 22 38.402344 22.003906 38.417969 22.003906 38.433594 C 22.003906 38.449219 22 38.464844 22 38.484375 C 21.996094 39.929688 25 42 25 42 C 25 42 27.996094 39.941406 28 38.492188 C 28 38.472656 27.996094 38.457031 27.996094 38.4375 C 27.996094 38.421875 28 38.40625 28 38.390625 C 28 37.621094 27.328125 37 26.5 37 C 26.019531 37 25.605469 37.222656 25.332031 37.546875 C 25.527344 36.632813 25.808594 35.371094 26 35 Z "/>
</g>
</svg>