<svg xmlns="http://www.w3.org/2000/svg" xmlns:xlink="http://www.w3.org/1999/xlink" viewBox="0 0 50 50" version="1.1" width="100" height="100" fill="#000000">
<g id="surface1">
<path style=" " d="M 10 2 C 8.355469 2 7 3.355469 7 5 L 7 45 C 7 46.644531 8.355469 48 10 48 L 40 48 C 41.644531 48 43 46.644531 43 45 L 43 5 C 43 3.355469 41.644531 2 40 2 Z M 10 4 L 40 4 C 40.566406 4 41 4.433594 41 5 L 41 45 C 41 45.566406 40.566406 46 40 46 L 10 46 C 9.433594 46 9 45.566406 9 45 L 9 5 C 9 4.433594 9.433594 4 10 4 Z M 16 8 C 16 8 12.996094 10.070313 13 11.515625 C 13 11.535156 13.003906 11.550781 13.003906 11.566406 C 13.003906 11.582031 13 11.597656 13 11.609375 C 13 12.378906 13.671875 13 14.5 13 C 14.984375 13 15.402344 12.777344 15.675781 12.445313 C 15.480469 13.351563 15.191406 14.628906 15 15 L 17 15 C 16.808594 14.632813 16.527344 13.367188 16.332031 12.453125 C 16.605469 12.777344 17.019531 13 17.5 13 C 18.328125 13 19 12.378906 19 11.609375 C 19 11.59375 18.996094 11.578125 18.996094 11.5625 C 18.996094 11.542969 19 11.527344 19 11.507813 C 18.996094 10.058594 16 8 16 8 Z M 34 8 C 34 8 31 10.070313 31 11.515625 C 31 11.535156 31.003906 11.550781 31.003906 11.566406 C 31.003906 11.582031 31 11.597656 31 11.609375 C 31 12.378906 31.671875 13 32.5 13 C 32.984375 13 33.402344 12.777344 33.675781 12.445313 C 33.480469 13.351563 33.191406 14.628906 33 15 L 35 15 C 34.808594 14.632813 34.527344 13.367188 34.332031 12.453125 C 34.605469 12.777344 35.019531 13 35.5 13 C 36.328125 13 37 12.378906 37 11.609375 C 37 11.59375 36.996094 11.578125 36.996094 11.5625 C 36.996094 11.542969 37 11.527344 37 11.507813 C 36.996094 10.058594 34 8 34 8 Z M 15 35 C 15.195313 35.371094 15.480469 36.648438 15.675781 37.554688 C 15.402344 37.222656 14.984375 37 14.5 37 C 13.671875 37 13 37.621094 13 38.390625 C 13 38.402344 13.003906 38.417969 13.003906 38.433594 C 13.003906 38.449219 13 38.464844 13 38.484375 C 12.996094 39.929688 16 42 16 42 C 16 42 18.996094 39.941406 19 38.492188 C 19 38.472656 18.996094 38.457031 18.996094 38.4375 C 18.996094 38.421875 19 38.40625 19 38.390625 C 19 37.621094 18.328125 37 17.5 37 C 17.019531 37 16.605469 37.222656 16.332031 37.546875 C 16.527344 36.632813 16.808594 35.371094 17 35 Z M 33 35 C 33.195313 35.371094 33.480469 36.648438 33.675781 37.554688 C 33.402344 37.222656 32.984375 37 32.5 37 C 31.671875 37 31 37.621094 31 38.390625 C 31 38.402344 31.003906 38.417969 31.003906 38.433594 C 31.003906 38.449219 31 38.464844 31 38.484375 C 31 39.929688 34 42 34 42 C 34 42 36.996094 39.941406 37 38.492188 C 37 38.472656 36.996094 38.457031 36.996094 38.4375 C 36.996094 38.421875 37 38.40625 37 38.390625 C 37 37.621094 36.328125 37 35.5 37 C 35.019531 37 34.605469 37.222656 34.332031 37.546875 C 34.527344 36.632813 34.808594 35.371094 35 35 Z "/>
</g>
</svg>