<svg xmlns="http://www.w3.org/2000/svg" xmlns:xlink="http://www.w3.org/1999/xlink" viewBox="0 0 50 50" version="1.1" width="100" height="100" fill="#000000">
<g id="surface1">
<path style=" " d="M 10 2 C 8.355469 2 7 3.355469 7 5 L 7 45 C 7 46.644531 8.355469 48 10 48 L 40 48 C 41.644531 48 43 46.644531 43 45 L 43 5 C 43 3.355469 41.644531 2 40 2 Z M 10 4 L 40 4 C 40.566406 4 41 4.433594 41 5 L 41 45 C 41 45.566406 40.566406 46 40 46 L 10 46 C 9.433594 46 9 45.566406 9 45 L 9 5 C 9 4.433594 9.433594 4 10 4 Z M 16 6 L 13 10 L 16 14 L 19 10 Z M 34 6 L 31 10 L 34 14 L 37 10 Z M 25 21 L 22 25 L 25 29 L 28 25 Z M 16 36 L 13 40 L 16 44 L 19 40 Z M 34 36 L 31 40 L 34 44 L 37 40 Z "/>
</g>
</svg>