<svg xmlns="http://www.w3.org/2000/svg" xmlns:xlink="http://www.w3.org/1999/xlink" viewBox="0 0 50 50" version="1.1" width="100" height="100" fill="#000000">
<g id="surface1">
<path style=" " d="M 9 2 C 7.355469 2 6 3.355469 6 5 L 6 45 C 6 46.644531 7.355469 48 9 48 L 39 48 C 40.644531 48 42 46.644531 42 45 L 42 5 C 42 3.355469 40.644531 2 39 2 Z M 9 4 L 39 4 C 39.566406 4 40 4.433594 40 5 L 40 45 C 40 45.566406 39.566406 46 39 46 L 9 46 C 8.433594 46 8 45.566406 8 45 L 8 5 C 8 4.433594 8.433594 4 9 4 Z M 13.5 8 C 12.671875 8 12 8.671875 12 9.5 C 12 12 15 14 15 14 C 15 14 18 12.0625 18 9.5 C 18 8.671875 17.328125 8 16.5 8 C 15.671875 8 15 9.171875 15 10 C 15 9.171875 14.328125 8 13.5 8 Z M 31.5 8 C 30.671875 8 30 8.671875 30 9.5 C 30 12 33 14 33 14 C 33 14 36 12.0625 36 9.5 C 36 8.671875 35.328125 8 34.5 8 C 33.671875 8 33 9.171875 33 10 C 33 9.171875 32.328125 8 31.5 8 Z M 22.5 22 C 21.671875 22 21 22.671875 21 23.5 C 21 26 24 28 24 28 C 24 28 27 26.0625 27 23.5 C 27 22.671875 26.328125 22 25.5 22 C 24.671875 22 24 23.171875 24 24 C 24 23.171875 23.328125 22 22.5 22 Z M 15 36 C 15 36 12 37.9375 12 40.5 C 12 41.328125 12.671875 42 13.5 42 C 14.328125 42 15 40.828125 15 40 C 15 40.828125 15.671875 42 16.5 42 C 17.328125 42 18 41.328125 18 40.5 C 18 38 15 36 15 36 Z M 33 36 C 33 36 30 37.9375 30 40.5 C 30 41.328125 30.671875 42 31.5 42 C 32.328125 42 33 40.828125 33 40 C 33 40.828125 33.671875 42 34.5 42 C 35.328125 42 36 41.328125 36 40.5 C 36 38 33 36 33 36 Z "/>
</g>
</svg>