<?xml version="1.0" encoding="utf-8"?>
<!-- Generator: Adobe Illustrator 22.0.1, SVG Export Plug-In . SVG Version: 6.00 Build 0)  -->
<svg version="1.1" id="Layer_1" xmlns="http://www.w3.org/2000/svg" xmlns:xlink="http://www.w3.org/1999/xlink" x="0px" y="0px"
	 viewBox="0 0 72 92" style="enable-background:new 0 0 72 92;" xml:space="preserve">
<g id="surface1">
	<path d="M6,0C2.7,0,0,2.7,0,6v80c0,3.3,2.7,6,6,6h60c3.3,0,6-2.7,6-6V6c0-3.3-2.7-6-6-6H6z M6,4h60c1.1,0,2,0.9,2,2v80
		c0,1.1-0.9,2-2,2H6c-1.1,0-2-0.9-2-2V6C4,4.9,4.9,4,6,4z M18,12c0,0-6,4.1-6,7c0,0,0,0.1,0,0.1s0,0.1,0,0.1c0,1.5,1.3,2.8,3,2.8
		c1,0,1.8-0.4,2.4-1.1c-0.4,1.8-1,4.4-1.4,5.1h4c-0.4-0.7-0.9-3.3-1.3-5.1C19.2,21.6,20,22,21,22c1.7,0,3-1.2,3-2.8c0,0,0-0.1,0-0.1
		c0,0,0-0.1,0-0.1C24,16.1,18,12,18,12z M54,12c0,0-6,4.1-6,7c0,0,0,0.1,0,0.1s0,0.1,0,0.1c0,1.5,1.3,2.8,3,2.8c1,0,1.8-0.4,2.4-1.1
		c-0.4,1.8-1,4.4-1.4,5.1h4c-0.4-0.7-0.9-3.3-1.3-5.1C55.2,21.6,56,22,57,22c1.7,0,3-1.2,3-2.8c0,0,0-0.1,0-0.1c0,0,0-0.1,0-0.1
		C60,16.1,54,12,54,12z M36,38c0,0-6,4.1-6,7c0,0,0,0.1,0,0.1s0,0.1,0,0.1c0,1.5,1.3,2.8,3,2.8c1,0,1.8-0.4,2.4-1.1
		c-0.4,1.8-1,4.4-1.4,5.1h4c-0.4-0.7-0.9-3.3-1.3-5.1C37.2,47.6,38,48,39,48c1.7,0,3-1.2,3-2.8c0,0,0-0.1,0-0.1c0,0,0-0.1,0-0.1
		C42,42.1,36,38,36,38z M16,66c0.4,0.7,1,3.3,1.4,5.1C16.8,70.4,16,70,15,70c-1.7,0-3,1.2-3,2.8c0,0,0,0.1,0,0.1s0,0.1,0,0.1
		c0,2.9,6,7,6,7s6-4.1,6-7c0,0,0-0.1,0-0.1c0,0,0-0.1,0-0.1c0-1.5-1.3-2.8-3-2.8c-1,0-1.8,0.4-2.3,1.1c0.4-1.8,1-4.4,1.3-5.1H16z
		 M52,66c0.4,0.7,1,3.3,1.4,5.1C52.8,70.4,52,70,51,70c-1.7,0-3,1.2-3,2.8c0,0,0,0.1,0,0.1s0,0.1,0,0.1c0,2.9,6,7,6,7s6-4.1,6-7
		c0,0,0-0.1,0-0.1c0,0,0-0.1,0-0.1c0-1.5-1.3-2.8-3-2.8c-1,0-1.8,0.4-2.3,1.1c0.4-1.8,1-4.4,1.3-5.1H52z"/>
</g>
</svg>
