<svg xmlns="http://www.w3.org/2000/svg" xmlns:xlink="http://www.w3.org/1999/xlink" viewBox="0 0 50 50" version="1.1" width="100" height="100" fill="#000000">
<g id="surface1">
<path style=" " d="M 10 2 C 8.355469 2 7 3.355469 7 5 L 7 45 C 7 46.644531 8.355469 48 10 48 L 40 48 C 41.644531 48 43 46.644531 43 45 L 43 5 C 43 3.355469 41.644531 2 40 2 Z M 10 4 L 40 4 C 40.566406 4 41 4.433594 41 5 L 41 45 C 41 45.566406 40.566406 46 40 46 L 10 46 C 9.433594 46 9 45.566406 9 45 L 9 5 C 9 4.433594 9.433594 4 10 4 Z M 14.5 8 C 13.671875 8 13 8.671875 13 9.5 C 13 12 16 14 16 14 C 16 14 19 12.0625 19 9.5 C 19 8.671875 18.328125 8 17.5 8 C 16.671875 8 16 9.171875 16 10 C 16 9.171875 15.328125 8 14.5 8 Z M 32.5 8 C 31.671875 8 31 8.671875 31 9.5 C 31 12 34 14 34 14 C 34 14 37 12.0625 37 9.5 C 37 8.671875 36.328125 8 35.5 8 C 34.671875 8 34 9.171875 34 10 C 34 9.171875 33.328125 8 32.5 8 Z M 14.5 22 C 13.671875 22 13 22.671875 13 23.5 C 13 26 16 28 16 28 C 16 28 19 26.0625 19 23.5 C 19 22.671875 18.328125 22 17.5 22 C 16.671875 22 16 23.171875 16 24 C 16 23.171875 15.328125 22 14.5 22 Z M 32.5 22 C 31.671875 22 31 22.671875 31 23.5 C 31 26 34 28 34 28 C 34 28 37 26.0625 37 23.5 C 37 22.671875 36.328125 22 35.5 22 C 34.671875 22 34 23.171875 34 24 C 34 23.171875 33.328125 22 32.5 22 Z M 16 36 C 16 36 13 37.9375 13 40.5 C 13 41.328125 13.671875 42 14.5 42 C 15.328125 42 16 40.828125 16 40 C 16 40.828125 16.671875 42 17.5 42 C 18.328125 42 19 41.328125 19 40.5 C 19 38 16 36 16 36 Z M 34 36 C 34 36 31 37.9375 31 40.5 C 31 41.328125 31.671875 42 32.5 42 C 33.328125 42 34 40.828125 34 40 C 34 40.828125 34.671875 42 35.5 42 C 36.328125 42 37 41.328125 37 40.5 C 37 38 34 36 34 36 Z "/>
</g>
</svg>