<svg xmlns="http://www.w3.org/2000/svg" xmlns:xlink="http://www.w3.org/1999/xlink" viewBox="0 0 50 50" version="1.1" width="100" height="100" fill="#000000">
<g id="surface1">
<path style=" " d="M 10 2 C 8.355469 2 7 3.355469 7 5 L 7 45 C 7 46.644531 8.355469 48 10 48 L 40 48 C 41.644531 48 43 46.644531 43 45 L 43 5 C 43 3.355469 41.644531 2 40 2 Z M 10 4 L 40 4 C 40.566406 4 41 4.433594 41 5 L 41 45 C 41 45.566406 40.566406 46 40 46 L 10 46 C 9.433594 46 9 45.566406 9 45 L 9 5 C 9 4.433594 9.433594 4 10 4 Z M 16 8 C 15.449219 8 15 8.449219 15 9 C 15 9.515625 15.265625 10.148438 15.53125 10.667969 C 15.082031 10.347656 14.492188 10 14 10 C 13.449219 10 13 10.449219 13 11 C 13 11.550781 13.449219 12 14 12 C 14.726563 12 15.367188 11.667969 15.769531 11.429688 C 15.625 12.011719 15.230469 13.554688 15 14 L 17 14 C 16.769531 13.558594 16.390625 12.042969 16.238281 11.441406 C 16.65625 11.675781 17.304688 12 18 12 C 18.550781 12 19 11.550781 19 11 C 19 10.449219 18.550781 10 18 10 C 17.492188 10 16.9375 10.308594 16.511719 10.609375 C 16.757813 10.117188 17 9.507813 17 9 C 17 8.449219 16.550781 8 16 8 Z M 34 8 C 33.449219 8 33 8.449219 33 9 C 33 9.515625 33.265625 10.148438 33.53125 10.667969 C 33.082031 10.347656 32.492188 10 32 10 C 31.449219 10 31 10.449219 31 11 C 31 11.550781 31.449219 12 32 12 C 32.726563 12 33.367188 11.667969 33.769531 11.429688 C 33.625 12.011719 33.230469 13.554688 33 14 L 35 14 C 34.769531 13.558594 34.390625 12.042969 34.238281 11.441406 C 34.65625 11.675781 35.304688 12 36 12 C 36.550781 12 37 11.550781 37 11 C 37 10.449219 36.550781 10 36 10 C 35.492188 10 34.9375 10.308594 34.511719 10.609375 C 34.757813 10.117188 35 9.507813 35 9 C 35 8.449219 34.550781 8 34 8 Z M 25 14 C 24.449219 14 24 14.449219 24 15 C 24 15.515625 24.265625 16.148438 24.53125 16.667969 C 24.082031 16.347656 23.492188 16 23 16 C 22.449219 16 22 16.449219 22 17 C 22 17.550781 22.449219 18 23 18 C 23.726563 18 24.367188 17.667969 24.769531 17.429688 C 24.625 18.011719 24.230469 19.554688 24 20 L 26 20 C 25.769531 19.558594 25.390625 18.042969 25.238281 17.441406 C 25.65625 17.675781 26.304688 18 27 18 C 27.550781 18 28 17.550781 28 17 C 28 16.449219 27.550781 16 27 16 C 26.492188 16 25.9375 16.308594 25.511719 16.609375 C 25.757813 16.117188 26 15.507813 26 15 C 26 14.449219 25.550781 14 25 14 Z M 16 22 C 15.449219 22 15 22.449219 15 23 C 15 23.515625 15.265625 24.148438 15.53125 24.667969 C 15.082031 24.347656 14.492188 24 14 24 C 13.449219 24 13 24.449219 13 25 C 13 25.550781 13.449219 26 14 26 C 14.726563 26 15.367188 25.667969 15.769531 25.429688 C 15.625 26.011719 15.230469 27.554688 15 28 L 17 28 C 16.769531 27.558594 16.390625 26.042969 16.238281 25.441406 C 16.65625 25.675781 17.304688 26 18 26 C 18.550781 26 19 25.550781 19 25 C 19 24.449219 18.550781 24 18 24 C 17.492188 24 16.9375 24.308594 16.511719 24.609375 C 16.757813 24.117188 17 23.507813 17 23 C 17 22.449219 16.550781 22 16 22 Z M 34 22 C 33.449219 22 33 22.449219 33 23 C 33 23.515625 33.265625 24.148438 33.53125 24.667969 C 33.082031 24.347656 32.492188 24 32 24 C 31.449219 24 31 24.449219 31 25 C 31 25.550781 31.449219 26 32 26 C 32.726563 26 33.367188 25.667969 33.769531 25.429688 C 33.625 26.011719 33.230469 27.554688 33 28 L 35 28 C 34.769531 27.558594 34.390625 26.042969 34.238281 25.441406 C 34.65625 25.675781 35.304688 26 36 26 C 36.550781 26 37 25.550781 37 25 C 37 24.449219 36.550781 24 36 24 C 35.492188 24 34.9375 24.308594 34.511719 24.609375 C 34.757813 24.117188 35 23.507813 35 23 C 35 22.449219 34.550781 22 34 22 Z M 15 36 C 15.230469 36.445313 15.625 37.988281 15.769531 38.570313 C 15.367188 38.332031 14.726563 38 14 38 C 13.449219 38 13 38.449219 13 39 C 13 39.550781 13.449219 40 14 40 C 14.492188 40 15.082031 39.652344 15.53125 39.332031 C 15.265625 39.851563 15 40.484375 15 41 C 15 41.550781 15.449219 42 16 42 C 16.550781 42 17 41.550781 17 41 C 17 40.492188 16.757813 39.882813 16.511719 39.390625 C 16.9375 39.691406 17.492188 40 18 40 C 18.550781 40 19 39.550781 19 39 C 19 38.449219 18.550781 38 18 38 C 17.304688 38 16.65625 38.324219 16.238281 38.558594 C 16.390625 37.957031 16.769531 36.441406 17 36 Z M 33 36 C 33.230469 36.445313 33.625 37.988281 33.769531 38.570313 C 33.367188 38.332031 32.726563 38 32 38 C 31.449219 38 31 38.449219 31 39 C 31 39.550781 31.449219 40 32 40 C 32.492188 40 33.082031 39.652344 33.53125 39.332031 C 33.265625 39.851563 33 40.484375 33 41 C 33 41.550781 33.449219 42 34 42 C 34.550781 42 35 41.550781 35 41 C 35 40.492188 34.757813 39.882813 34.511719 39.390625 C 34.9375 39.691406 35.492188 40 36 40 C 36.550781 40 37 39.550781 37 39 C 37 38.449219 36.550781 38 36 38 C 35.304688 38 34.65625 38.324219 34.238281 38.558594 C 34.390625 37.957031 34.769531 36.441406 35 36 Z "/>
</g>
</svg>