<?xml version="1.0" encoding="utf-8"?>
<!-- Generator: Adobe Illustrator 22.0.1, SVG Export Plug-In . SVG Version: 6.00 Build 0)  -->
<svg version="1.1" id="Layer_1" xmlns="http://www.w3.org/2000/svg" xmlns:xlink="http://www.w3.org/1999/xlink" x="0px" y="0px"
	 viewBox="0 0 72 92" style="enable-background:new 0 0 72 92;" xml:space="preserve">
<g id="surface1">
	<path d="M6,0C2.7,0,0,2.7,0,6v80c0,3.3,2.7,6,6,6h60c3.3,0,6-2.7,6-6V6c0-3.3-2.7-6-6-6H6z M6,4h60c1.1,0,2,0.9,2,2v80
		c0,1.1-0.9,2-2,2H6c-1.1,0-2-0.9-2-2V6C4,4.9,4.9,4,6,4z M15,12c-1.7,0-3,1.3-3,3c0,5,6,9,6,9s6-3.9,6-9c0-1.7-1.3-3-3-3
		s-3,2.3-3,4C18,14.3,16.7,12,15,12z M51,12c-1.7,0-3,1.3-3,3c0,5,6,9,6,9s6-3.9,6-9c0-1.7-1.3-3-3-3s-3,2.3-3,4
		C54,14.3,52.7,12,51,12z M33,24c-1.7,0-3,1.3-3,3c0,5,6,9,6,9s6-3.9,6-9c0-1.7-1.3-3-3-3s-3,2.3-3,4C36,26.3,34.7,24,33,24z M15,40
		c-1.7,0-3,1.3-3,3c0,5,6,9,6,9s6-3.9,6-9c0-1.7-1.3-3-3-3s-3,2.3-3,4C18,42.3,16.7,40,15,40z M51,40c-1.7,0-3,1.3-3,3c0,5,6,9,6,9
		s6-3.9,6-9c0-1.7-1.3-3-3-3s-3,2.3-3,4C54,42.3,52.7,40,51,40z M36,56c0,0-6,3.9-6,9c0,1.7,1.3,3,3,3s3-2.3,3-4c0,1.7,1.3,4,3,4
		s3-1.3,3-3C42,60,36,56,36,56z M18,68c0,0-6,3.9-6,9c0,1.7,1.3,3,3,3s3-2.3,3-4c0,1.7,1.3,4,3,4s3-1.3,3-3C24,72,18,68,18,68z
		 M54,68c0,0-6,3.9-6,9c0,1.7,1.3,3,3,3s3-2.3,3-4c0,1.7,1.3,4,3,4s3-1.3,3-3C60,72,54,68,54,68z"/>
</g>
</svg>
