<svg xmlns="http://www.w3.org/2000/svg" xmlns:xlink="http://www.w3.org/1999/xlink" viewBox="0 0 50 50" version="1.1" width="100" height="100" fill="#000000">
<g id="surface1">
<path style=" " d="M 10 2 C 8.355469 2 7 3.355469 7 5 L 7 45 C 7 46.644531 8.355469 48 10 48 L 40 48 C 41.644531 48 43 46.644531 43 45 L 43 5 C 43 3.355469 41.644531 2 40 2 Z M 10 4 L 40 4 C 40.566406 4 41 4.433594 41 5 L 41 45 C 41 45.566406 40.566406 46 40 46 L 10 46 C 9.433594 46 9 45.566406 9 45 L 9 5 C 9 4.433594 9.433594 4 10 4 Z M 16 8 C 15.449219 8 15 8.449219 15 9 C 15 9.515625 15.265625 10.148438 15.53125 10.667969 C 15.082031 10.347656 14.492188 10 14 10 C 13.449219 10 13 10.449219 13 11 C 13 11.550781 13.449219 12 14 12 C 14.726563 12 15.367188 11.667969 15.769531 11.429688 C 15.625 12.011719 15.230469 13.554688 15 14 L 17 14 C 16.769531 13.558594 16.390625 12.042969 16.238281 11.441406 C 16.65625 11.675781 17.304688 12 18 12 C 18.550781 12 19 11.550781 19 11 C 19 10.449219 18.550781 10 18 10 C 17.492188 10 16.9375 10.308594 16.511719 10.609375 C 16.757813 10.117188 17 9.507813 17 9 C 17 8.449219 16.550781 8 16 8 Z M 34 8 C 33.449219 8 33 8.449219 33 9 C 33 9.515625 33.265625 10.148438 33.53125 10.667969 C 33.082031 10.347656 32.492188 10 32 10 C 31.449219 10 31 10.449219 31 11 C 31 11.550781 31.449219 12 32 12 C 32.726563 12 33.367188 11.667969 33.769531 11.429688 C 33.625 12.011719 33.230469 13.554688 33 14 L 35 14 C 34.769531 13.558594 34.390625 12.042969 34.238281 11.441406 C 34.65625 11.675781 35.304688 12 36 12 C 36.550781 12 37 11.550781 37 11 C 37 10.449219 36.550781 10 36 10 C 35.492188 10 34.9375 10.308594 34.511719 10.609375 C 34.757813 10.117188 35 9.507813 35 9 C 35 8.449219 34.550781 8 34 8 Z M 16 17 C 15.449219 17 15 17.449219 15 18 C 15 18.515625 15.265625 19.148438 15.53125 19.667969 C 15.082031 19.347656 14.492188 19 14 19 C 13.449219 19 13 19.449219 13 20 C 13 20.550781 13.449219 21 14 21 C 14.726563 21 15.367188 20.667969 15.769531 20.429688 C 15.625 21.011719 15.230469 22.554688 15 23 L 17 23 C 16.769531 22.558594 16.390625 21.042969 16.238281 20.441406 C 16.65625 20.675781 17.304688 21 18 21 C 18.550781 21 19 20.550781 19 20 C 19 19.449219 18.550781 19 18 19 C 17.492188 19 16.9375 19.308594 16.511719 19.609375 C 16.757813 19.117188 17 18.507813 17 18 C 17 17.449219 16.550781 17 16 17 Z M 34 17 C 33.449219 17 33 17.449219 33 18 C 33 18.515625 33.265625 19.148438 33.53125 19.667969 C 33.082031 19.347656 32.492188 19 32 19 C 31.449219 19 31 19.449219 31 20 C 31 20.550781 31.449219 21 32 21 C 32.726563 21 33.367188 20.667969 33.769531 20.429688 C 33.625 21.011719 33.230469 22.554688 33 23 L 35 23 C 34.769531 22.558594 34.390625 21.042969 34.238281 20.441406 C 34.65625 20.675781 35.304688 21 36 21 C 36.550781 21 37 20.550781 37 20 C 37 19.449219 36.550781 19 36 19 C 35.492188 19 34.9375 19.308594 34.511719 19.609375 C 34.757813 19.117188 35 18.507813 35 18 C 35 17.449219 34.550781 17 34 17 Z M 25 22 C 24.449219 22 24 22.449219 24 23 C 24 23.515625 24.265625 24.148438 24.53125 24.667969 C 24.082031 24.347656 23.492188 24 23 24 C 22.449219 24 22 24.449219 22 25 C 22 25.550781 22.449219 26 23 26 C 23.726563 26 24.367188 25.667969 24.769531 25.429688 C 24.625 26.011719 24.230469 27.554688 24 28 L 26 28 C 25.769531 27.558594 25.390625 26.042969 25.238281 25.441406 C 25.65625 25.675781 26.304688 26 27 26 C 27.550781 26 28 25.550781 28 25 C 28 24.449219 27.550781 24 27 24 C 26.492188 24 25.9375 24.308594 25.511719 24.609375 C 25.757813 24.117188 26 23.507813 26 23 C 26 22.449219 25.550781 22 25 22 Z M 15 27 C 15.230469 27.445313 15.625 28.988281 15.769531 29.570313 C 15.367188 29.332031 14.726563 29 14 29 C 13.449219 29 13 29.449219 13 30 C 13 30.550781 13.449219 31 14 31 C 14.492188 31 15.082031 30.652344 15.53125 30.332031 C 15.265625 30.851563 15 31.484375 15 32 C 15 32.550781 15.449219 33 16 33 C 16.550781 33 17 32.550781 17 32 C 17 31.492188 16.757813 30.882813 16.511719 30.390625 C 16.9375 30.691406 17.492188 31 18 31 C 18.550781 31 19 30.550781 19 30 C 19 29.449219 18.550781 29 18 29 C 17.304688 29 16.65625 29.324219 16.238281 29.558594 C 16.390625 28.957031 16.769531 27.441406 17 27 Z M 33 27 C 33.230469 27.445313 33.625 28.988281 33.769531 29.570313 C 33.367188 29.332031 32.726563 29 32 29 C 31.449219 29 31 29.449219 31 30 C 31 30.550781 31.449219 31 32 31 C 32.492188 31 33.082031 30.652344 33.53125 30.332031 C 33.265625 30.851563 33 31.484375 33 32 C 33 32.550781 33.449219 33 34 33 C 34.550781 33 35 32.550781 35 32 C 35 31.492188 34.757813 30.882813 34.511719 30.390625 C 34.9375 30.691406 35.492188 31 36 31 C 36.550781 31 37 30.550781 37 30 C 37 29.449219 36.550781 29 36 29 C 35.304688 29 34.65625 29.324219 34.238281 29.558594 C 34.390625 28.957031 34.769531 27.441406 35 27 Z M 15 36 C 15.230469 36.445313 15.625 37.988281 15.769531 38.570313 C 15.367188 38.332031 14.726563 38 14 38 C 13.449219 38 13 38.449219 13 39 C 13 39.550781 13.449219 40 14 40 C 14.492188 40 15.082031 39.652344 15.53125 39.332031 C 15.265625 39.851563 15 40.484375 15 41 C 15 41.550781 15.449219 42 16 42 C 16.550781 42 17 41.550781 17 41 C 17 40.492188 16.757813 39.882813 16.511719 39.390625 C 16.9375 39.691406 17.492188 40 18 40 C 18.550781 40 19 39.550781 19 39 C 19 38.449219 18.550781 38 18 38 C 17.304688 38 16.65625 38.324219 16.238281 38.558594 C 16.390625 37.957031 16.769531 36.441406 17 36 Z M 33 36 C 33.230469 36.445313 33.625 37.988281 33.769531 38.570313 C 33.367188 38.332031 32.726563 38 32 38 C 31.449219 38 31 38.449219 31 39 C 31 39.550781 31.449219 40 32 40 C 32.492188 40 33.082031 39.652344 33.53125 39.332031 C 33.265625 39.851563 33 40.484375 33 41 C 33 41.550781 33.449219 42 34 42 C 34.550781 42 35 41.550781 35 41 C 35 40.492188 34.757813 39.882813 34.511719 39.390625 C 34.9375 39.691406 35.492188 40 36 40 C 36.550781 40 37 39.550781 37 39 C 37 38.449219 36.550781 38 36 38 C 35.304688 38 34.65625 38.324219 34.238281 38.558594 C 34.390625 37.957031 34.769531 36.441406 35 36 Z "/>
</g>
</svg>