<svg xmlns="http://www.w3.org/2000/svg" xmlns:xlink="http://www.w3.org/1999/xlink" viewBox="0 0 50 50" version="1.1" width="100" height="100" fill="#000000">
<g id="surface1">
<path style=" " d="M 10 2 C 8.355469 2 7 3.355469 7 5 L 7 45 C 7 46.644531 8.355469 48 10 48 L 40 48 C 41.644531 48 43 46.644531 43 45 L 43 5 C 43 3.355469 41.644531 2 40 2 Z M 10 4 L 40 4 C 40.566406 4 41 4.433594 41 5 L 41 45 C 41 45.566406 40.566406 46 40 46 L 10 46 C 9.433594 46 9 45.566406 9 45 L 9 5 C 9 4.433594 9.433594 4 10 4 Z M 35.546875 6 C 35.546875 6 34.027344 10.179688 33 13 L 34.0625 13 C 34.304688 12.34375 34.550781 11.664063 34.792969 11 L 37.207031 11 C 37.449219 11.664063 37.699219 12.34375 37.9375 13 L 39 13 C 37.972656 10.179688 36.453125 6 36.453125 6 Z M 36 7.679688 C 36.234375 8.324219 36.527344 9.128906 36.84375 10 L 35.15625 10 C 35.472656 9.128906 35.765625 8.324219 36 7.679688 Z M 25.003906 19 C 23.625 19 22.503906 20.117188 22.503906 21.5 C 22.503906 22.796875 24.636719 25.101563 24.910156 25.390625 L 24.90625 25.398438 C 24.660156 25.113281 22.792969 23 21.5 23 C 20.117188 23 19 24.117188 19 25.5 C 19 26.882813 20.117188 28 21.5 28 C 22.730469 28 24.464844 26.101563 24.84375 25.671875 L 24.765625 26.027344 C 24.765625 26.027344 23.566406 29.902344 23.011719 31 L 27 31 C 26.445313 29.902344 25.25 26 25.25 26 L 25.171875 25.691406 C 25.589844 26.160156 27.289063 28 28.5 28 C 29.882813 28 31 26.882813 31 25.5 C 31 24.117188 29.882813 23 28.5 23 C 27.484375 23 26.078125 24.347656 25.402344 25.0625 C 26.105469 24.257813 27.503906 22.535156 27.503906 21.5 C 27.503906 20.117188 26.386719 19 25.003906 19 Z M 11 37 C 12.027344 39.820313 13.546875 44 13.546875 44 L 14.453125 44 C 14.453125 44 15.972656 39.820313 17 37 L 15.9375 37 C 15.695313 37.65625 15.449219 38.335938 15.207031 39 L 12.792969 39 C 12.550781 38.335938 12.300781 37.65625 12.0625 37 Z M 13.15625 40 L 14.84375 40 C 14.527344 40.871094 14.234375 41.675781 14 42.324219 C 13.765625 41.675781 13.472656 40.871094 13.15625 40 Z "/>
</g>
</svg>