<?xml version="1.0" encoding="utf-8"?>
<!-- Generator: Adobe Illustrator 22.0.1, SVG Export Plug-In . SVG Version: 6.00 Build 0)  -->
<svg version="1.1" id="Layer_1" xmlns="http://www.w3.org/2000/svg" xmlns:xlink="http://www.w3.org/1999/xlink" x="0px" y="0px"
	 viewBox="0 0 72 92" style="enable-background:new 0 0 72 92;" xml:space="preserve">
<g id="surface1">
	<path d="M6,0C2.7,0,0,2.7,0,6v80c0,3.3,2.7,6,6,6h60c3.3,0,6-2.7,6-6V6c0-3.3-2.7-6-6-6H6z M6,4h60c1.1,0,2,0.9,2,2v80
		c0,1.1-0.9,2-2,2H6c-1.1,0-2-0.9-2-2V6C4,4.9,4.9,4,6,4z M57.1,8c0,0-3,8.4-5.1,14h2.1c0.5-1.3,1-2.7,1.5-4h4.8
		c0.5,1.3,1,2.7,1.5,4H64c-2.1-5.6-5.1-14-5.1-14H57.1z M58,11.4c0.5,1.3,1.1,2.9,1.7,4.6h-3.4C56.9,14.3,57.5,12.6,58,11.4z M36,32
		L26,46l10,14l10-14L36,32z M8,70c2.1,5.6,5.1,14,5.1,14h1.8c0,0,3-8.4,5.1-14h-2.1c-0.5,1.3-1,2.7-1.5,4h-4.8c-0.5-1.3-1-2.7-1.5-4
		H8z M12.3,76h3.4c-0.6,1.7-1.2,3.4-1.7,4.6C13.5,79.4,12.9,77.7,12.3,76z"/>
</g>
</svg>
