<?xml version="1.0" encoding="utf-8"?>
<!-- Generator: Adobe Illustrator 22.0.1, SVG Export Plug-In . SVG Version: 6.00 Build 0)  -->
<svg version="1.1" id="Layer_1" xmlns="http://www.w3.org/2000/svg" xmlns:xlink="http://www.w3.org/1999/xlink" x="0px" y="0px"
	 viewBox="0 0 72 92" style="enable-background:new 0 0 72 92;" xml:space="preserve">
<g id="surface1">
	<path d="M6,0C2.7,0,0,2.7,0,6v80c0,3.3,2.7,6,6,6h60c3.3,0,6-2.7,6-6V6c0-3.3-2.7-6-6-6H6z M6,4h60c1.1,0,2,0.9,2,2v80
		c0,1.1-0.9,2-2,2H6c-1.1,0-2-0.9-2-2V6C4,4.9,4.9,4,6,4z M10,8v2h4v8c0,1.1-0.9,2-2,2s-2-0.9-2-2H8c0,2.2,1.8,4,4,4
		c2.2,0,4-1.8,4-4v-8h2V8H10z M58,8c-1.1,0-2,0.9-2,2c0,1,0.5,2.3,1.1,3.3C56.2,12.7,55,12,54,12c-1.1,0-2,0.9-2,2s0.9,2,2,2
		c1.5,0,2.7-0.7,3.5-1.1C57.2,16,56.5,19.1,56,20h4c-0.5-0.9-1.2-3.9-1.5-5.1c0.8,0.5,2.1,1.1,3.5,1.1c1.1,0,2-0.9,2-2s-0.9-2-2-2
		c-1,0-2.1,0.6-3,1.2c0.5-1,1-2.2,1-3.2C60,8.9,59.1,8,58,8z M22,26c-0.7,0-1.3,0.4-1.7,0.9c-0.4,0.6-0.4,1.3-0.1,2l4,8
		c0.1,0.2,0.2,0.3,0.3,0.5C23,39.1,22,41.4,22,44v10h-1c-3.9,0-7,3.1-7,7s3.1,7,7,7c0.3,0,0.6,0,1,0c0.1,0,0.2,0,0.4,0H24
		c7.7,0,14-6.3,14-14v-9.9c0-3.3,2.7-6.1,6-6.1h2.9l6.1,9.2l-2,1c-0.7,0.3-1.1,1-1.1,1.8v7.1c-0.6,0.6-3,2.9-8,2.9
		c-0.7,0-1.4,0.4-1.8,1c-0.4,0.6-0.4,1.4,0,2c0.4,0.6,1,1,1.8,1c7.3,0,11.5-4.7,11.5-4.7C53.8,59,54,58.5,54,58v-6.8l2.9-1.4
		c0.5-0.3,0.9-0.7,1-1.3c0.1-0.6,0.1-1.1-0.3-1.6l-7.4-11l3.5-6.9c0.3-0.6,0.3-1.4-0.1-2c-0.4-0.6-1-0.9-1.7-0.9H22z M25.2,30h23.5
		l-2,4H27.2L25.2,30z M46,42c-1.1,0-2,0.9-2,2s0.9,2,2,2s2-0.9,2-2S47.1,42,46,42z M60,70c-2.2,0-4,1.8-4,4v8h-2v2h8v-2h-4v-8
		c0-1.1,0.9-2,2-2s2,0.9,2,2h2C64,71.8,62.2,70,60,70z M12,72c0.5,0.9,1.2,4,1.5,5.1C12.7,76.7,11.5,76,10,76c-1.1,0-2,0.9-2,2
		s0.9,2,2,2c1,0,2.2-0.7,3.1-1.3C12.5,79.7,12,81,12,82c0,1.1,0.9,2,2,2s2-0.9,2-2c0-1-0.5-2.2-1-3.2c0.9,0.6,2,1.2,3,1.2
		c1.1,0,2-0.9,2-2s-0.9-2-2-2c-1.4,0-2.7,0.6-3.5,1.1c0.3-1.2,1.1-4.2,1.5-5.1H12z"/>
</g>
</svg>
