<?xml version="1.0" encoding="utf-8"?>
<!-- Generator: Adobe Illustrator 22.0.1, SVG Export Plug-In . SVG Version: 6.00 Build 0)  -->
<svg version="1.1" id="Layer_1" xmlns="http://www.w3.org/2000/svg" xmlns:xlink="http://www.w3.org/1999/xlink" x="0px" y="0px"
	 viewBox="0 0 72 92" style="enable-background:new 0 0 72 92;" xml:space="preserve">
<g id="surface1">
	<path d="M6,0C2.7,0,0,2.7,0,6v80c0,3.3,2.7,6,6,6h60c3.3,0,6-2.7,6-6V6c0-3.3-2.7-6-6-6H6z M6,4h60c1.1,0,2,0.9,2,2v80
		c0,1.1-0.9,2-2,2H6c-1.1,0-2-0.9-2-2V6C4,4.9,4.9,4,6,4z M58,6l-6,8l6,8l6-8L58,6z M10,8v2h4v8c0,1.1-0.9,2-2,2s-2-0.9-2-2H8
		c0,2.2,1.8,4,4,4c2.2,0,4-1.8,4-4v-8h2V8H10z M22,26c-0.7,0-1.3,0.4-1.7,0.9c-0.4,0.6-0.4,1.3-0.1,2l4,8c0.1,0.2,0.2,0.4,0.4,0.5
		C23,39.2,22,41.4,22,44v8c-4.5,0-8.2,3.9-8,8.4c0.2,4.4,4.1,7.6,8.3,7.6H24c7.7,0,14-6.3,14-14v-9.9c0-3.4,2.7-6.2,6.2-6.2h2.8
		l6.2,9.2l-2,1c-0.7,0.3-1.1,1-1.1,1.8v7.1c-0.6,0.6-3,2.9-8,2.9c-0.7,0-1.4,0.4-1.8,1c-0.4,0.6-0.4,1.4,0,2c0.4,0.6,1,1,1.8,1
		c7.3,0,11.5-4.7,11.5-4.7C53.8,59,54,58.5,54,58v-6.8l2.9-1.4c0.5-0.3,0.9-0.7,1-1.3c0.1-0.6,0.1-1.1-0.3-1.6l-7.4-11.1l3.5-6.9
		c0.3-0.6,0.3-1.4-0.1-2c-0.4-0.6-1-1-1.7-1H22z M25.2,30h23.5l-2,4H27.2L25.2,30z M32.2,38h4c-1.3,1.7-2.1,3.8-2.1,6.2V54
		c0,5.5-4.5,10-10,10h-1.7c-2.2,0-4.2-1.7-4.3-3.8c-0.1-2.3,1.7-4.2,4-4.2h2c1.1,0,2-0.9,2-2V44C26,40.6,28.7,38,32.2,38z M46,42
		c-1.1,0-2,0.9-2,2s0.9,2,2,2s2-0.9,2-2S47.1,42,46,42z M14,70l-6,8l6,8l6-8L14,70z M60,70c-2.2,0-4,1.8-4,4v8h-2v2h8v-2h-4v-8
		c0-1.1,0.9-2,2-2s2,0.9,2,2h2C64,71.8,62.2,70,60,70z"/>
</g>
</svg>
