<svg xmlns="http://www.w3.org/2000/svg" xmlns:xlink="http://www.w3.org/1999/xlink" viewBox="0 0 50 50" version="1.1" width="100" height="100" fill="#000000">
<g id="surface1">
<path style=" " d="M 10 2 C 8.355469 2 7 3.355469 7 5 L 7 45 C 7 46.644531 8.355469 48 10 48 L 40 48 C 41.644531 48 43 46.644531 43 45 L 43 5 C 43 3.355469 41.644531 2 40 2 Z M 10 4 L 40 4 C 40.566406 4 41 4.433594 41 5 L 41 45 C 41 45.566406 40.566406 46 40 46 L 10 46 C 9.433594 46 9 45.566406 9 45 L 9 5 C 9 4.433594 9.433594 4 10 4 Z M 12 6 L 12 7 L 14 7 L 14 11 C 14 11.550781 13.550781 12 13 12 C 12.449219 12 12 11.550781 12 11 L 11 11 C 11 12.101563 11.898438 13 13 13 C 14.101563 13 15 12.101563 15 11 L 15 7 L 16 7 L 16 6 Z M 34.5 6 C 33.671875 6 33 6.671875 33 7.5 C 33 10 36 12 36 12 C 36 12 39 10.0625 39 7.5 C 39 6.671875 38.328125 6 37.5 6 C 36.671875 6 36 7.171875 36 8 C 36 7.171875 35.328125 6 34.5 6 Z M 18 15 C 17.652344 15 17.332031 15.179688 17.148438 15.472656 C 16.96875 15.769531 16.949219 16.136719 17.105469 16.449219 L 19.105469 20.4375 C 19.152344 20.535156 19.214844 20.621094 19.292969 20.699219 C 18.5 21.578125 18 22.71875 18 24 L 18 28 C 15.730469 28 13.886719 29.925781 14.003906 32.214844 C 14.121094 34.40625 16.046875 36 18.171875 36 L 19 36 C 22.855469 36 26 32.855469 26 29 L 26 24.074219 C 26 22.359375 27.367188 20.992188 29.078125 20.992188 L 30.464844 20.992188 L 33.542969 25.609375 L 32.550781 26.105469 C 32.214844 26.273438 32 26.621094 32 27 L 32 30.535156 C 31.707031 30.835938 30.507813 32 28 32 C 27.640625 31.996094 27.304688 32.183594 27.121094 32.496094 C 26.941406 32.808594 26.941406 33.191406 27.121094 33.503906 C 27.304688 33.816406 27.640625 34.003906 28 34 C 31.660156 34 33.75 31.65625 33.75 31.65625 C 33.910156 31.476563 34 31.242188 34 31 L 34 27.617188 L 35.449219 26.894531 C 35.703125 26.765625 35.894531 26.535156 35.964844 26.257813 C 36.039063 25.980469 35.992188 25.683594 35.832031 25.445313 L 32.136719 19.890625 L 33.890625 16.453125 C 34.050781 16.144531 34.035156 15.773438 33.851563 15.476563 C 33.671875 15.179688 33.347656 15 33 15 Z M 19.621094 17 L 31.363281 17 L 30.347656 18.992188 L 20.617188 18.992188 Z M 23.078125 20.992188 L 25.074219 20.992188 C 24.410156 21.851563 24 22.910156 24 24.074219 L 24 29 C 24 31.773438 21.773438 34 19 34 L 18.171875 34 C 17.046875 34 16.058594 33.164063 16 32.109375 C 15.941406 30.9375 16.847656 30 18 30 L 19 30 C 19.550781 30 20 29.550781 20 29 L 20 24 C 20 22.289063 21.347656 20.992188 23.078125 20.992188 Z M 30 23 C 29.449219 23 29 23.449219 29 24 C 29 24.550781 29.449219 25 30 25 C 30.550781 25 31 24.550781 31 24 C 31 23.449219 30.550781 23 30 23 Z M 37 37 C 35.898438 37 35 37.898438 35 39 L 35 43 L 34 43 L 34 44 L 38 44 L 38 43 L 36 43 L 36 39 C 36 38.449219 36.449219 38 37 38 C 37.550781 38 38 38.449219 38 39 L 39 39 C 39 37.898438 38.101563 37 37 37 Z M 14 38 C 14 38 11 40 11 42.5 C 11 43.328125 11.671875 44 12.5 44 C 13.328125 44 14 42.828125 14 42 C 14 42.828125 14.671875 44 15.5 44 C 16.328125 44 17 43.328125 17 42.5 C 17 39.9375 14 38 14 38 Z "/>
</g>
</svg>