<?xml version="1.0" encoding="utf-8"?>
<!-- Generator: Adobe Illustrator 22.0.1, SVG Export Plug-In . SVG Version: 6.00 Build 0)  -->
<svg version="1.1" id="Layer_1" xmlns="http://www.w3.org/2000/svg" xmlns:xlink="http://www.w3.org/1999/xlink" x="0px" y="0px"
	 viewBox="0 0 72 92" style="enable-background:new 0 0 72 92;" xml:space="preserve">
<g id="surface1">
	<path d="M6,0C2.7,0,0,2.7,0,6v80c0,3.3,2.7,6,6,6h60c3.3,0,6-2.7,6-6V6c0-3.3-2.7-6-6-6H6z M6,4h60c1.1,0,2,0.9,2,2v80
		c0,1.1-0.9,2-2,2H6c-1.1,0-2-0.9-2-2V6C4,4.9,4.9,4,6,4z M25,16c-2.7,0-5,2.3-5,5c0,2.7,2.3,5,5,5c0.6,0,1.2-0.1,1.8-0.3
		c3,3.5,3.1,8.5,3.1,10.5c-4.4,0.2-7.8,1-9.9,2c-0.7,0.4-1.3,0.7-1.8,1c-0.9-0.8-2-1.2-3.2-1.2c-2.7,0-5,2.3-5,5s2.3,5,5,5
		c2.3,0,4.2-1.6,4.8-3.7c1.5,0.4,3.4,1.4,5.2,2.8c2.5,2,5,4.7,6.9,7.5l-8.7,3.5c-0.7,0.3-1.2,0.9-1.2,1.6c-0.1,0.7,0.3,1.5,0.9,1.9
		l4.8,3.2l-1.7,6.6c-0.2,0.7,0,1.4,0.5,1.9c0.5,0.5,1.2,0.7,1.9,0.5l6.6-1.7l3.2,4.8c0.4,0.5,0.9,0.9,1.6,0.9c0.6,0,1.2-0.2,1.6-0.7
		l3.8-4.7l5.6,3.2c0.7,0.4,1.5,0.3,2.1-0.1c0.6-0.4,1-1.2,0.8-2l-1.8-10.8c1.8-0.6,2.8-1.1,2.8-1.1c0.6-0.4,1-1,1-1.7v-6.8l2.9-1.4
		c1-0.5,1.4-1.7,0.9-2.7L54,37.5c0-0.4-0.2-2.4-0.1-5c0.1-2.6,0.7-5.5,1.4-6.8c0.5,0.2,1.1,0.3,1.7,0.3c2.7,0,5-2.3,5-5
		c0-2.7-2.3-5-5-5s-5,2.3-5,5c0,0.4,0.1,0.8,0.1,1.1c-6,0.6-8.8,4.2-10.3,6.6c-1.7-2.4-5.1-6.1-12-6.6c0.1-0.4,0.1-0.7,0.1-1.1
		C30,18.3,27.7,16,25,16z M25,20c0.6,0,1,0.4,1,1c0,0.6-0.4,1-1,1s-1-0.4-1-1C24,20.4,24.4,20,25,20z M57,20c0.6,0,1,0.4,1,1
		c0,0.6-0.4,1-1,1s-1-0.4-1-1C56,20.4,56.4,20,57,20z M50.7,26.7c-0.5,1.9-0.7,3.8-0.8,5.6c-0.1,1.4,0,2.7,0,3.7
		c-1.9,0.1-4.7,0.4-7.7,1.8c-3.8,1.7-7.7,5.3-9.3,11.4c-1.6-1.9-3.4-3.7-5.3-5.2c-1.4-1.1-2.8-1.9-4.2-2.6c1.9-0.7,4.5-1.3,8.7-1.3
		c1,0,1.9-0.8,2-1.8c0,0,0.5-5.9-2-11.4c5.8,1.7,8.2,6.1,8.2,6.1c0.4,0.7,1.1,1.1,1.9,1.1c0.8,0,1.5-0.5,1.8-1.2
		C43.9,32.8,45.8,28.3,50.7,26.7z M50.8,40l4.5,9.1l-2.2,1.1c-0.7,0.3-1.1,1-1.1,1.8v6.7c-1,0.5-3.3,1.3-8,1.3c-0.7,0-1.4,0.4-1.8,1
		c-0.4,0.6-0.4,1.4,0,2c0.4,0.6,1,1,1.8,1c1.6,0,3-0.1,4.2-0.3l1.1,6.5l-3.5-2C45,67.8,44,68,43.3,68.7l-3.2,3.9l-2.5-3.7
		c-0.5-0.7-1.3-1-2.1-0.8l-4.8,1.2l1.2-4.8c0.2-0.8-0.1-1.7-0.8-2.1l-2.8-1.9l6.2-2.5h0c0.4-0.1,0.8-0.3,1.1-0.7
		c0,0,0.1-0.1,0.1-0.1c0,0,0,0,0,0s0,0,0,0s0,0,0,0c0,0,0.1-0.1,0.1-0.2c0.2-0.3,0.3-0.7,0.2-1.1c0.1-9.1,3.9-12.6,7.8-14.4
		C47,40,49.6,40,50.8,40z M15,42c0.6,0,1,0.4,1,1s-0.4,1-1,1c-0.6,0-1-0.4-1-1S14.4,42,15,42z M48,44c-1.1,0-2,0.9-2,2s0.9,2,2,2
		s2-0.9,2-2S49.1,44,48,44z"/>
</g>
</svg>
