<svg xmlns="http://www.w3.org/2000/svg" xmlns:xlink="http://www.w3.org/1999/xlink" viewBox="0 0 50 50" version="1.1" width="100" height="100" fill="#000000">
<g id="surface1">
<path style=" " d="M 10 2 C 8.355469 2 7 3.355469 7 5 L 7 45 C 7 46.644531 8.355469 48 10 48 L 40 48 C 41.644531 48 43 46.644531 43 45 L 43 5 C 43 3.355469 41.644531 2 40 2 Z M 10 4 L 40 4 C 40.566406 4 41 4.433594 41 5 L 41 45 C 41 45.566406 40.566406 46 40 46 L 10 46 C 9.433594 46 9 45.566406 9 45 L 9 5 C 9 4.433594 9.433594 4 10 4 Z M 12 6 L 12 7 L 14 7 L 14 11 C 14 11.550781 13.550781 12 13 12 C 12.449219 12 12 11.550781 12 11 L 11 11 C 11 12.101563 11.898438 13 13 13 C 14.101563 13 15 12.101563 15 11 L 15 7 L 16 7 L 16 6 Z M 36 6 C 36 6 33 8.070313 33 9.515625 C 33 9.535156 33.003906 9.550781 33.003906 9.566406 C 33.003906 9.582031 33 9.597656 33 9.609375 C 33 10.378906 33.671875 11 34.5 11 C 34.984375 11 35.402344 10.777344 35.675781 10.445313 C 35.480469 11.351563 35.191406 12.628906 35 13 L 37 13 C 36.808594 12.632813 36.527344 11.367188 36.332031 10.453125 C 36.605469 10.777344 37.019531 11 37.5 11 C 38.328125 11 39 10.378906 39 9.609375 C 39 9.59375 38.996094 9.578125 38.996094 9.5625 C 38.996094 9.542969 39 9.527344 39 9.507813 C 38.996094 8.058594 36 6 36 6 Z M 18 15 C 17.652344 15 17.332031 15.179688 17.148438 15.472656 C 16.96875 15.769531 16.949219 16.136719 17.105469 16.449219 L 19.105469 20.449219 C 19.148438 20.535156 19.203125 20.613281 19.269531 20.6875 C 18.484375 21.5625 18 22.710938 18 24 L 18 29 L 17.5 29 C 15.566406 29 14 30.566406 14 32.5 C 14 34.433594 15.566406 36 17.5 36 C 17.648438 36 17.8125 35.992188 17.976563 35.980469 C 18.042969 35.980469 18.101563 36 18.171875 36 L 19 36 C 22.859375 36 26 32.859375 26 29 L 26 24.070313 C 26 22.398438 27.339844 21.042969 29 21 L 30.46875 21 L 33.542969 25.609375 L 32.550781 26.105469 C 32.214844 26.273438 32 26.621094 32 27 L 32 30.535156 C 31.707031 30.835938 30.507813 32 28 32 C 27.640625 31.996094 27.304688 32.183594 27.121094 32.496094 C 26.941406 32.808594 26.941406 33.191406 27.121094 33.503906 C 27.304688 33.816406 27.640625 34.003906 28 34 C 31.660156 34 33.75 31.65625 33.75 31.65625 C 33.910156 31.476563 34 31.242188 34 31 L 34 27.617188 L 35.449219 26.894531 C 35.703125 26.765625 35.894531 26.535156 35.964844 26.257813 C 36.039063 25.980469 35.992188 25.683594 35.832031 25.445313 L 32.15625 19.921875 L 33.894531 16.449219 C 34.050781 16.136719 34.03125 15.769531 33.851563 15.472656 C 33.667969 15.179688 33.347656 15 33 15 Z M 19.617188 17 L 31.382813 17 L 30.382813 19 L 20.617188 19 Z M 30 23 C 29.449219 23 29 23.449219 29 24 C 29 24.550781 29.449219 25 30 25 C 30.550781 25 31 24.550781 31 24 C 31 23.449219 30.550781 23 30 23 Z M 13 37 C 13.195313 37.371094 13.480469 38.648438 13.675781 39.554688 C 13.402344 39.222656 12.984375 39 12.5 39 C 11.671875 39 11 39.621094 11 40.390625 C 11 40.402344 11.003906 40.417969 11.003906 40.433594 C 11.003906 40.449219 11 40.464844 11 40.484375 C 10.996094 41.929688 14 44 14 44 C 14 44 16.996094 41.941406 17 40.492188 C 17 40.472656 16.996094 40.457031 16.996094 40.4375 C 16.996094 40.421875 17 40.40625 17 40.390625 C 17 39.621094 16.328125 39 15.5 39 C 15.019531 39 14.605469 39.222656 14.332031 39.546875 C 14.527344 38.632813 14.808594 37.371094 15 37 Z M 37 37 C 35.898438 37 35 37.898438 35 39 L 35 43 L 34 43 L 34 44 L 38 44 L 38 43 L 36 43 L 36 39 C 36 38.449219 36.449219 38 37 38 C 37.550781 38 38 38.449219 38 39 L 39 39 C 39 37.898438 38.101563 37 37 37 Z "/>
</g>
</svg>