<?xml version="1.0" encoding="utf-8"?>
<!-- Generator: Adobe Illustrator 22.0.1, SVG Export Plug-In . SVG Version: 6.00 Build 0)  -->
<svg version="1.1" id="Layer_1" xmlns="http://www.w3.org/2000/svg" xmlns:xlink="http://www.w3.org/1999/xlink" x="0px" y="0px"
	 viewBox="0 0 72 92" style="enable-background:new 0 0 72 92;" xml:space="preserve">
<g id="surface1">
	<path d="M6,0C2.7,0,0,2.7,0,6v80c0,3.3,2.7,6,6,6h60c3.3,0,6-2.7,6-6V6c0-3.3-2.7-6-6-6H6z M6,4h60c1.1,0,2,0.9,2,2v80
		c0,1.1-0.9,2-2,2H6c-1.1,0-2-0.9-2-2V6C4,4.9,4.9,4,6,4z M10,8v2h4v8c0,1.1-0.9,2-2,2s-2-0.9-2-2H8c0,2.2,1.8,4,4,4
		c2.2,0,4-1.8,4-4v-8h2V8H10z M58,8c0,0-6,4.1-6,7c0,0,0,0.1,0,0.1s0,0.1,0,0.1c0,1.5,1.3,2.8,3,2.8c1,0,1.8-0.4,2.4-1.1
		c-0.4,1.8-1,4.4-1.4,5.1h4c-0.4-0.7-0.9-3.3-1.3-5.1C59.2,17.6,60,18,61,18c1.7,0,3-1.2,3-2.8c0,0,0-0.1,0-0.1c0,0,0-0.1,0-0.1
		C64,12.1,58,8,58,8z M22,26c-0.7,0-1.3,0.4-1.7,0.9c-0.4,0.6-0.4,1.3-0.1,2l4,8c0.1,0.2,0.2,0.3,0.3,0.5C23,39.1,22,41.4,22,44v10
		h-1c-3.9,0-7,3.1-7,7s3.1,7,7,7c0.3,0,0.6,0,1,0c0.1,0,0.2,0,0.4,0H24c7.7,0,14-6.3,14-14v-9.9c0-3.3,2.7-6.1,6-6.1h2.9l6.1,9.2
		l-2,1c-0.7,0.3-1.1,1-1.1,1.8v7.1c-0.6,0.6-3,2.9-8,2.9c-0.7,0-1.4,0.4-1.8,1c-0.4,0.6-0.4,1.4,0,2c0.4,0.6,1,1,1.8,1
		c7.3,0,11.5-4.7,11.5-4.7C53.8,59,54,58.5,54,58v-6.8l2.9-1.4c0.5-0.3,0.9-0.7,1-1.3c0.1-0.6,0.1-1.1-0.3-1.6l-7.4-11l3.5-6.9
		c0.3-0.6,0.3-1.4-0.1-2c-0.4-0.6-1-0.9-1.7-0.9H22z M25.2,30h23.5l-2,4H27.2L25.2,30z M46,42c-1.1,0-2,0.9-2,2s0.9,2,2,2s2-0.9,2-2
		S47.1,42,46,42z M12,70c0.4,0.7,1,3.3,1.4,5.1C12.8,74.4,12,74,11,74c-1.7,0-3,1.2-3,2.8c0,0,0,0.1,0,0.1s0,0.1,0,0.1
		c0,2.9,6,7,6,7s6-4.1,6-7c0,0,0-0.1,0-0.1c0,0,0-0.1,0-0.1c0-1.5-1.3-2.8-3-2.8c-1,0-1.8,0.4-2.3,1.1c0.4-1.8,1-4.4,1.3-5.1H12z
		 M60,70c-2.2,0-4,1.8-4,4v8h-2v2h8v-2h-4v-8c0-1.1,0.9-2,2-2s2,0.9,2,2h2C64,71.8,62.2,70,60,70z"/>
</g>
</svg>
