<svg xmlns="http://www.w3.org/2000/svg" xmlns:xlink="http://www.w3.org/1999/xlink" viewBox="0 0 50 50" version="1.1" width="100" height="100" fill="#000000">
<g id="surface1">
<path style=" " d="M 10 2 C 8.355469 2 7 3.355469 7 5 L 7 45 C 7 46.644531 8.355469 48 10 48 L 40 48 C 41.644531 48 43 46.644531 43 45 L 43 5 C 43 3.355469 41.644531 2 40 2 Z M 10 4 L 40 4 C 40.566406 4 41 4.433594 41 5 L 41 45 C 41 45.566406 40.566406 46 40 46 L 10 46 C 9.433594 46 9 45.566406 9 45 L 9 5 C 9 4.433594 9.433594 4 10 4 Z M 11 6 L 11 13 L 12 13 L 12 10.601563 L 12.824219 9.640625 L 15.066406 13 L 16.265625 13 L 13.5 8.851563 L 15.941406 6 L 14.625 6 L 12 9.0625 L 12 6 Z M 34.5 6 C 33.671875 6 33 6.671875 33 7.5 C 33 10 36 12 36 12 C 36 12 39 10.0625 39 7.5 C 39 6.671875 38.328125 6 37.5 6 C 36.671875 6 36 7.171875 36 8 C 36 7.171875 35.328125 6 34.5 6 Z M 26.035156 11 C 26.003906 11 25.96875 11 25.9375 11 C 25.5 11.03125 25.128906 11.339844 25.027344 11.765625 C 25.027344 11.765625 24.804688 12.679688 24.371094 13.558594 C 24.15625 13.996094 23.882813 14.410156 23.625 14.667969 C 23.371094 14.921875 23.1875 15 23 15 C 21.601563 15 20.902344 13.570313 20.902344 13.570313 C 20.699219 13.148438 20.234375 12.921875 19.78125 13.027344 C 19.324219 13.128906 19 13.535156 19 14 L 19 21 C 19 21.015625 19 21.027344 19 21.042969 C 18.382813 21.867188 18 22.882813 18 24 L 18 28 C 15.730469 28 13.886719 29.925781 14.003906 32.214844 C 14.121094 34.40625 16.046875 36 18.171875 36 L 19 36 C 19.121094 35.996094 19.242188 35.972656 19.359375 35.925781 C 23.039063 35.730469 26 32.726563 26 29 L 26 24.074219 C 26 22.363281 27.363281 21.003906 29.066406 21 C 29.089844 20.996094 29.109375 20.996094 29.125 20.992188 L 31.378906 21 L 33.65625 25.550781 L 32.550781 26.105469 C 32.546875 26.109375 32.542969 26.109375 32.535156 26.113281 C 31.785156 26.429688 31.027344 27.371094 30.777344 27.78125 C 30.328125 28.332031 29.875 28.332031 29.605469 28.332031 C 29.324219 28.332031 29.269531 28.058594 29.261719 28.003906 C 29.253906 27.976563 29.222656 27.71875 29.421875 27.660156 C 29.578125 27.613281 29.675781 27.457031 29.65625 27.292969 C 29.628906 27.128906 29.488281 27.007813 29.324219 27.007813 C 28.632813 27.007813 28 27.558594 28 28.167969 C 28 28.847656 28.488281 30 30.332031 30 C 30.921875 30 31.492188 29.886719 32 29.699219 L 32 30.535156 C 31.707031 30.835938 30.507813 32 28 32 C 27.640625 31.996094 27.304688 32.183594 27.121094 32.496094 C 26.941406 32.808594 26.941406 33.191406 27.121094 33.503906 C 27.304688 33.816406 27.640625 34.003906 28 34 C 31.660156 34 33.75 31.65625 33.75 31.65625 C 33.910156 31.476563 34 31.242188 34 31 L 34 27.617188 L 35.449219 26.894531 C 35.941406 26.648438 36.140625 26.046875 35.894531 25.550781 L 33 19.765625 L 33 14 C 33 13.535156 32.675781 13.128906 32.21875 13.027344 C 31.765625 12.921875 31.300781 13.148438 31.097656 13.570313 C 31.097656 13.570313 30.398438 15 29 15 C 28.8125 15 28.628906 14.921875 28.375 14.667969 C 28.117188 14.410156 27.84375 13.996094 27.628906 13.558594 C 27.195313 12.679688 26.972656 11.765625 26.972656 11.765625 C 26.867188 11.328125 26.484375 11.015625 26.035156 11 Z M 26 14.683594 C 26.257813 15.164063 26.539063 15.660156 26.964844 16.082031 C 27.460938 16.578125 28.164063 17 29 17 C 29.816406 17 30.449219 16.742188 31 16.414063 L 31 19 L 29.082031 18.992188 C 29.082031 18.992188 29.082031 18.992188 29.078125 18.992188 C 29.066406 18.992188 29.050781 19 29.035156 19 C 29.023438 19 29.011719 19 29 19 L 23.078125 19 C 22.339844 19 21.640625 19.167969 21 19.453125 L 21 16.414063 C 21.550781 16.742188 22.183594 17 23 17 C 23.835938 17 24.539063 16.578125 25.035156 16.082031 C 25.460938 15.660156 25.742188 15.164063 26 14.683594 Z M 23.078125 21 L 25.144531 21 C 24.46875 21.863281 24 22.898438 24 24.074219 L 24 29 C 24 31.773438 21.773438 34 19 34 L 18.171875 34 C 17.046875 34 16.058594 33.164063 16 32.109375 C 15.941406 30.9375 16.847656 30 18 30 L 19 30 C 19.550781 30 20 29.550781 20 29 L 20 24 C 20 22.289063 21.34375 21 23.078125 21 Z M 30 23 C 29.449219 23 29 23.449219 29 24 C 29 24.550781 29.449219 25 30 25 C 30.550781 25 31 24.550781 31 24 C 31 23.449219 30.550781 23 30 23 Z M 33.734375 37 L 36.5 41.152344 L 34.058594 44 L 35.375 44 L 38 40.9375 L 38 44 L 39 44 L 39 37 L 38 37 L 38 39.398438 L 37.175781 40.359375 L 34.933594 37 Z M 14 38 C 14 38 11 40 11 42.5 C 11 43.328125 11.671875 44 12.5 44 C 13.328125 44 14 42.828125 14 42 C 14 42.828125 14.671875 44 15.5 44 C 16.328125 44 17 43.328125 17 42.5 C 17 39.9375 14 38 14 38 Z "/>
</g>
</svg>