<?xml version="1.0" encoding="utf-8"?>
<!-- Generator: Adobe Illustrator 22.0.1, SVG Export Plug-In . SVG Version: 6.00 Build 0)  -->
<svg version="1.1" id="Layer_1" xmlns="http://www.w3.org/2000/svg" xmlns:xlink="http://www.w3.org/1999/xlink" x="0px" y="0px"
	 viewBox="0 0 72 92" style="enable-background:new 0 0 72 92;" xml:space="preserve">
<g id="surface1">
	<path d="M6,0C2.7,0,0,2.7,0,6v80c0,3.3,2.7,6,6,6h60c3.3,0,6-2.7,6-6V6c0-3.3-2.7-6-6-6H6z M6,4h60c1.1,0,2,0.9,2,2v80
		c0,1.1-0.9,2-2,2H6c-1.1,0-2-0.9-2-2V6C4,4.9,4.9,4,6,4z M8,8v14h2v-4.8l1.6-1.9l4.5,6.7h2.4L13,13.7L17.9,8h-2.6L10,14.1V8H8z
		 M58,8c0,0-6,4.1-6,7c0,0,0,0.1,0,0.1s0,0.1,0,0.1c0,1.5,1.3,2.8,3,2.8c1,0,1.8-0.4,2.4-1.1c-0.4,1.8-1,4.4-1.4,5.1h4
		c-0.4-0.7-0.9-3.3-1.3-5.1C59.2,17.6,60,18,61,18c1.7,0,3-1.2,3-2.8c0,0,0-0.1,0-0.1c0,0,0-0.1,0-0.1C64,12.1,58,8,58,8z M38.1,18
		c-0.1,0-0.1,0-0.2,0c-0.9,0.1-1.6,0.7-1.8,1.5c0,0-0.4,1.8-1.3,3.6c-0.4,0.9-1,1.7-1.5,2.2C32.7,25.8,32.4,26,32,26
		c-2.8,0-4.2-2.9-4.2-2.9c-0.4-0.8-1.3-1.3-2.2-1.1c-0.9,0.2-1.6,1-1.6,1.9v14c0,0,0,0,0,0c-1.2,1.7-2,3.7-2,6v10h-1
		c-3.9,0-7,3.1-7,7s3.1,7,7,7c0.3,0,0.6,0,1,0c0.1,0,0.2,0,0.4,0H24c7.7,0,14-6.3,14-14v-9.9c0-3.3,2.7-6.1,6-6.1h4.8l4.5,9.1
		l-2.2,1.1c0,0,0,0,0,0c-1.5,0.6-3,2.5-3.5,3.3c-0.9,1.1-1.8,1.1-2.3,1.1c-0.6,0-0.7-0.5-0.7-0.7c0-0.1-0.1-0.6,0.3-0.7
		c0.3-0.1,0.5-0.4,0.5-0.7C45.3,50.3,45,50,44.6,50c-1.4,0-2.6,1.1-2.6,2.3c0,1.4,1,3.7,4.7,3.7c1.2,0,2.3-0.2,3.3-0.6v1.7
		c-0.6,0.6-3,2.9-8,2.9c-0.7,0-1.4,0.4-1.8,1c-0.4,0.6-0.4,1.4,0,2c0.4,0.6,1,1,1.8,1c7.3,0,11.5-4.7,11.5-4.7
		C53.8,59,54,58.5,54,58v-6.8l2.9-1.4c1-0.5,1.4-1.7,0.9-2.7L52,35.5V24c0-0.9-0.6-1.7-1.6-1.9c-0.9-0.2-1.8,0.2-2.2,1.1
		c0,0-1.4,2.9-4.2,2.9c-0.4,0-0.7-0.2-1.2-0.7c-0.5-0.5-1.1-1.3-1.5-2.2c-0.9-1.8-1.3-3.6-1.3-3.6C39.7,18.7,39,18,38.1,18z
		 M38,25.4c0.5,1,1.1,2,1.9,2.8c1,1,2.4,1.8,4.1,1.8c1.6,0,2.9-0.5,4-1.2V34H32.2c-1.5,0-2.9,0.3-4.2,0.9v-6c1.1,0.7,2.4,1.2,4,1.2
		c1.7,0,3.1-0.8,4.1-1.8C36.9,27.3,37.5,26.3,38,25.4z M46,42c-1.1,0-2,0.9-2,2s0.9,2,2,2s2-0.9,2-2S47.1,42,46,42z M12,70
		c0.4,0.7,1,3.3,1.4,5.1C12.8,74.4,12,74,11,74c-1.7,0-3,1.2-3,2.8c0,0,0,0.1,0,0.1s0,0.1,0,0.1c0,2.9,6,7,6,7s6-4.1,6-7
		c0,0,0-0.1,0-0.1c0,0,0-0.1,0-0.1c0-1.5-1.3-2.8-3-2.8c-1,0-1.8,0.4-2.3,1.1c0.4-1.8,1-4.4,1.3-5.1H12z M53.5,70l5.5,8.3L54.1,84
		h2.6l5.2-6.1V84h2V70h-2v4.8l-1.6,1.9L55.9,70H53.5z"/>
</g>
</svg>
