<?xml version="1.0" encoding="utf-8"?>
<!-- Generator: Adobe Illustrator 22.0.1, SVG Export Plug-In . SVG Version: 6.00 Build 0)  -->
<svg version="1.1" id="Layer_1" xmlns="http://www.w3.org/2000/svg" xmlns:xlink="http://www.w3.org/1999/xlink" x="0px" y="0px"
	 viewBox="0 0 72 92" style="enable-background:new 0 0 72 92;" xml:space="preserve">
<g id="surface1">
	<path d="M6,0C2.7,0,0,2.7,0,6v80c0,3.3,2.7,6,6,6h60c3.3,0,6-2.7,6-6V6c0-3.3-2.7-6-6-6H6z M6,4h60c1.1,0,2,0.9,2,2v80
		c0,1.1-0.9,2-2,2H6c-1.1,0-2-0.9-2-2V6C4,4.9,4.9,4,6,4z M13,8c-2.8,0-5,2.2-5,5v4c0,2.8,2.2,5,5,5c1,0,1.9-0.3,2.6-0.8l1.8,2.8
		h2.4l-2.8-4.2C17.7,19,18,18.1,18,17v-4C18,10.2,15.8,8,13,8z M58,8c-1.1,0-2,0.9-2,2c0,1,0.5,2.3,1.1,3.3C56.2,12.7,55,12,54,12
		c-1.1,0-2,0.9-2,2s0.9,2,2,2c1.5,0,2.7-0.7,3.5-1.1C57.2,16,56.5,19.1,56,20h4c-0.5-0.9-1.2-3.9-1.5-5.1c0.8,0.5,2.1,1.1,3.5,1.1
		c1.1,0,2-0.9,2-2s-0.9-2-2-2c-1,0-2.1,0.6-3,1.2c0.5-1,1-2.2,1-3.2C60,8.9,59.1,8,58,8z M13,10c1.6,0,3,1.4,3,3v4c0,1.6-1.4,3-3,3
		s-3-1.4-3-3v-4C10,11.4,11.4,10,13,10z M39.9,20c-0.9,0-1.6,0.6-1.8,1.4c0,0-0.3,0.8-0.7,1.5c-0.5,0.7-1,1.1-1.4,1.1
		c-1.8,0-2.3-1.1-2.3-1.1c-0.5-0.8-1.4-1.1-2.2-0.8c-0.9,0.2-1.4,1-1.4,1.9v9.4c-5.4,2.4-9.3,7.7-10.7,15l-0.7,3.7
		c0.1,0,0.2,0,0.3,0c5,0,9,4,9,9c0,1.1-0.9,2-2,2c-1.1,0-2-0.9-2-2c0-2.8-2.2-5-5-5c-2.4,0-4.4,1.7-4.9,4c0,0,0,0.1,0,0.1
		c0,0.2-0.1,0.5-0.1,0.7c0,1.6,0.5,3.1,1.5,4.4c1.3,1.7,3.3,2.7,5.4,2.7H26c6.6,0,12-5.4,12-12V46c0-5.1,3.9-9.4,8.9-9.9l6.3,11.1
		l-2.1,1.1c-0.7,0.3-1.1,1-1.1,1.8v6.3c-2.1,0.2-6.1,1-9.4,4.3c-0.5,0.5-0.7,1.2-0.5,1.9c0.2,0.7,0.7,1.2,1.4,1.4
		c0.7,0.2,1.4,0,1.9-0.5c2.7-2.7,8.7-3.4,8.7-3.4c1-0.1,1.8-0.9,1.8-2v-6.8l2.9-1.4c0.5-0.2,0.9-0.7,1-1.2c0.2-0.5,0.1-1.1-0.2-1.6
		L50,33.5V24c0-0.9-0.6-1.7-1.4-1.9c-0.9-0.2-1.8,0.1-2.2,0.8c0,0-0.6,1.1-2.3,1.1c-0.4,0-0.9-0.4-1.4-1.1c-0.5-0.7-0.7-1.5-0.7-1.5
		C41.6,20.5,40.8,20,39.9,20z M40,25.9c0.9,1.1,2.1,2.1,4,2.1c0.9,0,1.3-0.4,2-0.7V32h-9c-1,0-2,0.1-3,0.2v-4.9
		c0.7,0.2,1.1,0.7,2,0.7C37.9,28,39.1,26.9,40,25.9z M46,42c-1.1,0-2,0.9-2,2s0.9,2,2,2s2-0.9,2-2S47.1,42,46,42z M52.1,68l2.8,4.2
		C54.3,73,54,73.9,54,75v4c0,2.8,2.2,5,5,5s5-2.2,5-5v-4c0-2.8-2.2-5-5-5c-1,0-1.9,0.3-2.6,0.8L54.5,68H52.1z M12,72
		c0.5,0.9,1.2,4,1.5,5.1C12.7,76.7,11.5,76,10,76c-1.1,0-2,0.9-2,2s0.9,2,2,2c1,0,2.2-0.7,3.1-1.3C12.5,79.7,12,81,12,82
		c0,1.1,0.9,2,2,2s2-0.9,2-2c0-1-0.5-2.2-1-3.2c0.9,0.6,2,1.2,3,1.2c1.1,0,2-0.9,2-2s-0.9-2-2-2c-1.4,0-2.7,0.6-3.5,1.1
		c0.3-1.2,1.1-4.2,1.5-5.1H12z M59,72c1.6,0,3,1.4,3,3v4c0,1.6-1.4,3-3,3s-3-1.4-3-3v-4C56,73.4,57.4,72,59,72z"/>
</g>
</svg>
