<svg xmlns="http://www.w3.org/2000/svg" xmlns:xlink="http://www.w3.org/1999/xlink" viewBox="0 0 50 50" version="1.1" width="100" height="100" fill="#000000">
<g id="surface1">
<path style=" " d="M 10 2 C 8.355469 2 7 3.355469 7 5 L 7 45 C 7 46.644531 8.355469 48 10 48 L 40 48 C 41.644531 48 43 46.644531 43 45 L 43 5 C 43 3.355469 41.644531 2 40 2 Z M 10 4 L 40 4 C 40.566406 4 41 4.433594 41 5 L 41 45 C 41 45.566406 40.566406 46 40 46 L 10 46 C 9.433594 46 9 45.566406 9 45 L 9 5 C 9 4.433594 9.433594 4 10 4 Z M 13.5 6 C 12.121094 6 11 7.121094 11 8.5 L 11 10.5 C 11 11.878906 12.121094 13 13.5 13 C 13.980469 13 14.429688 12.855469 14.8125 12.621094 L 15.734375 14 L 16.933594 14 L 15.546875 11.921875 C 15.832031 11.519531 16 11.03125 16 10.5 L 16 8.5 C 16 7.121094 14.878906 6 13.5 6 Z M 36 6 C 35.449219 6 35 6.449219 35 7 C 35 7.515625 35.265625 8.148438 35.53125 8.667969 C 35.082031 8.347656 34.492188 8 34 8 C 33.449219 8 33 8.449219 33 9 C 33 9.550781 33.449219 10 34 10 C 34.726563 10 35.367188 9.667969 35.769531 9.429688 C 35.625 10.011719 35.230469 11.554688 35 12 L 37 12 C 36.769531 11.558594 36.390625 10.042969 36.238281 9.441406 C 36.65625 9.675781 37.304688 10 38 10 C 38.550781 10 39 9.550781 39 9 C 39 8.449219 38.550781 8 38 8 C 37.492188 8 36.9375 8.308594 36.511719 8.609375 C 36.757813 8.117188 37 7.507813 37 7 C 37 6.449219 36.550781 6 36 6 Z M 13.5 7 C 14.324219 7 15 7.675781 15 8.5 L 15 10.5 C 15 11.324219 14.324219 12 13.5 12 C 12.675781 12 12 11.324219 12 10.5 L 12 8.5 C 12 7.675781 12.675781 7 13.5 7 Z M 26.964844 12 C 26.539063 12.015625 26.175781 12.292969 26.046875 12.699219 C 26.046875 12.699219 25.917969 13.082031 25.675781 13.449219 C 25.4375 13.816406 25.195313 14 25 14 C 24.125 14 23.84375 13.464844 23.84375 13.464844 C 23.605469 13.089844 23.148438 12.917969 22.722656 13.042969 C 22.292969 13.164063 22 13.554688 22 14 L 22 18.722656 C 19.277344 19.925781 17.335938 22.566406 16.671875 26.210938 L 16.332031 28.066406 C 16.390625 28.066406 16.441406 28.050781 16.5 28.050781 C 18.980469 28.050781 21 30.070313 21 32.550781 C 21 33.105469 20.550781 33.550781 20 33.550781 C 19.445313 33.550781 19 33.105469 19 32.550781 C 19 31.171875 17.875 30.050781 16.5 30.050781 C 15.296875 30.050781 14.289063 30.90625 14.050781 32.035156 C 14.050781 32.058594 14.046875 32.078125 14.046875 32.097656 C 14.023438 32.210938 14.015625 32.324219 14.011719 32.441406 C 14.003906 33.222656 14.253906 33.992188 14.75 34.628906 C 15.414063 35.488281 16.417969 36 17.4375 36 L 20 36 C 23.308594 36 26 33.308594 26 30 L 26 25 C 26 22.433594 27.945313 20.3125 30.4375 20.03125 L 33.609375 25.578125 L 32.550781 26.105469 C 32.214844 26.273438 32 26.621094 32 27 L 32 30.15625 C 30.964844 30.28125 28.953125 30.632813 27.292969 32.292969 C 27.03125 32.542969 26.925781 32.917969 27.019531 33.265625 C 27.109375 33.617188 27.382813 33.890625 27.734375 33.980469 C 28.082031 34.074219 28.457031 33.96875 28.707031 33.707031 C 30.054688 32.359375 33.078125 31.996094 33.078125 31.996094 C 33.597656 31.957031 34 31.523438 34 31 L 34 27.617188 L 35.449219 26.894531 C 35.691406 26.773438 35.878906 26.554688 35.957031 26.289063 C 36.039063 26.027344 36.003906 25.742188 35.871094 25.503906 L 32 18.734375 L 32 14 C 32 13.554688 31.707031 13.164063 31.277344 13.042969 C 30.851563 12.917969 30.394531 13.089844 30.15625 13.464844 C 30.15625 13.464844 29.875 14 29 14 C 28.804688 14 28.5625 13.816406 28.324219 13.449219 C 28.082031 13.082031 27.953125 12.699219 27.953125 12.699219 C 27.816406 12.269531 27.414063 11.984375 26.964844 12 Z M 27 14.925781 C 27.445313 15.460938 28.058594 16 29 16 C 29.4375 16 29.660156 15.777344 30 15.65625 L 30 18 L 25.511719 18 C 24.992188 18 24.488281 18.046875 24 18.125 L 24 15.65625 C 24.339844 15.777344 24.5625 16 25 16 C 25.941406 16 26.554688 15.460938 27 14.925781 Z M 30 23 C 29.449219 23 29 23.449219 29 24 C 29 24.550781 29.449219 25 30 25 C 30.550781 25 31 24.550781 31 24 C 31 23.449219 30.550781 23 30 23 Z M 33.066406 36 L 34.453125 38.078125 C 34.167969 38.480469 34 38.96875 34 39.5 L 34 41.5 C 34 42.878906 35.121094 44 36.5 44 C 37.878906 44 39 42.878906 39 41.5 L 39 39.5 C 39 38.121094 37.878906 37 36.5 37 C 36.019531 37 35.570313 37.144531 35.1875 37.378906 L 34.265625 36 Z M 13 38 C 13.230469 38.445313 13.625 39.988281 13.769531 40.570313 C 13.367188 40.332031 12.726563 40 12 40 C 11.449219 40 11 40.449219 11 41 C 11 41.550781 11.449219 42 12 42 C 12.492188 42 13.082031 41.652344 13.53125 41.332031 C 13.265625 41.851563 13 42.484375 13 43 C 13 43.550781 13.449219 44 14 44 C 14.550781 44 15 43.550781 15 43 C 15 42.492188 14.757813 41.882813 14.511719 41.390625 C 14.9375 41.691406 15.492188 42 16 42 C 16.550781 42 17 41.550781 17 41 C 17 40.449219 16.550781 40 16 40 C 15.304688 40 14.65625 40.324219 14.238281 40.558594 C 14.390625 39.957031 14.769531 38.441406 15 38 Z M 36.5 38 C 37.324219 38 38 38.675781 38 39.5 L 38 41.5 C 38 42.324219 37.324219 43 36.5 43 C 35.675781 43 35 42.324219 35 41.5 L 35 39.5 C 35 38.675781 35.675781 38 36.5 38 Z "/>
</g>
</svg>