<svg xmlns="http://www.w3.org/2000/svg" xmlns:xlink="http://www.w3.org/1999/xlink" viewBox="0 0 50 50" version="1.1" width="100" height="100" fill="#000000">
<g id="surface1">
<path style=" " d="M 10 2 C 8.355469 2 7 3.355469 7 5 L 7 45 C 7 46.644531 8.355469 48 10 48 L 40 48 C 41.644531 48 43 46.644531 43 45 L 43 5 C 43 3.355469 41.644531 2 40 2 Z M 10 4 L 40 4 C 40.566406 4 41 4.433594 41 5 L 41 45 C 41 45.566406 40.566406 46 40 46 L 10 46 C 9.433594 46 9 45.566406 9 45 L 9 5 C 9 4.433594 9.433594 4 10 4 Z M 13.5 6 C 12.121094 6 11 7.121094 11 8.5 L 11 10.5 C 11 11.878906 12.121094 13 13.5 13 C 13.980469 13 14.429688 12.855469 14.8125 12.621094 L 15.734375 14 L 16.933594 14 L 15.546875 11.921875 C 15.832031 11.519531 16 11.03125 16 10.5 L 16 8.5 C 16 7.121094 14.878906 6 13.5 6 Z M 34.5 6 C 33.671875 6 33 6.671875 33 7.5 C 33 10 36 12 36 12 C 36 12 39 10.0625 39 7.5 C 39 6.671875 38.328125 6 37.5 6 C 36.671875 6 36 7.171875 36 8 C 36 7.171875 35.328125 6 34.5 6 Z M 13.5 7 C 14.324219 7 15 7.675781 15 8.5 L 15 10.5 C 15 11.324219 14.324219 12 13.5 12 C 12.675781 12 12 11.324219 12 10.5 L 12 8.5 C 12 7.675781 12.675781 7 13.5 7 Z M 26.964844 12 C 26.539063 12.015625 26.175781 12.292969 26.046875 12.699219 C 26.046875 12.699219 25.917969 13.082031 25.675781 13.449219 C 25.4375 13.816406 25.195313 14 25 14 C 24.125 14 23.84375 13.464844 23.84375 13.464844 C 23.605469 13.089844 23.148438 12.917969 22.722656 13.042969 C 22.292969 13.164063 22 13.554688 22 14 L 22 18.71875 C 21.074219 19.125 20.242188 19.683594 19.542969 20.378906 C 18.042969 21.867188 17.09375 23.910156 16.671875 26.210938 L 16.113281 29.28125 C 15.136719 29.691406 14.390625 30.535156 14.121094 31.582031 C 13.523438 33.878906 15.304688 36 17.4375 36 L 20 36 C 23.300781 36 26 33.300781 26 30 L 26 25 C 26 22.410156 27.964844 20.375 30.480469 20.105469 L 33.609375 25.578125 L 32.550781 26.105469 C 32.214844 26.273438 32 26.621094 32 27 L 32 30.15625 C 30.964844 30.28125 28.953125 30.632813 27.292969 32.292969 C 27.03125 32.542969 26.925781 32.917969 27.019531 33.265625 C 27.109375 33.617188 27.382813 33.890625 27.734375 33.980469 C 28.082031 34.074219 28.457031 33.96875 28.707031 33.707031 C 30.054688 32.359375 33.078125 31.996094 33.078125 31.996094 C 33.597656 31.957031 34 31.523438 34 31 L 34 27.617188 L 35.449219 26.894531 C 35.691406 26.773438 35.878906 26.554688 35.957031 26.289063 C 36.039063 26.027344 36.003906 25.742188 35.871094 25.503906 L 32 18.734375 L 32 14 C 32 13.554688 31.707031 13.164063 31.277344 13.042969 C 30.851563 12.917969 30.394531 13.089844 30.15625 13.464844 C 30.15625 13.464844 29.875 14 29 14 C 28.804688 14 28.5625 13.816406 28.324219 13.449219 C 28.082031 13.082031 27.953125 12.699219 27.953125 12.699219 C 27.816406 12.269531 27.414063 11.984375 26.964844 12 Z M 27 14.925781 C 27.445313 15.460938 28.058594 16 29 16 C 29.4375 16 29.660156 15.777344 30 15.65625 L 30 18 L 25.511719 18 C 24.988281 18 24.488281 18.046875 24 18.128906 L 24 15.65625 C 24.339844 15.777344 24.5625 16 25 16 C 25.941406 16 26.554688 15.460938 27 14.925781 Z M 25.511719 20 L 26.113281 20 C 24.8125 21.273438 24 23.042969 24 25 L 24 30 C 24 32.21875 22.21875 34 20 34 L 17.4375 34 C 16.695313 34 15.785156 33.125 16.054688 32.082031 C 16.175781 31.609375 16.609375 31.175781 17.082031 31.054688 C 17.085938 31.054688 17.085938 31.054688 17.085938 31.054688 C 17.695313 30.898438 18.191406 30.992188 18.496094 31.183594 C 18.796875 31.375 18.96875 31.613281 18.96875 32.109375 C 18.960938 32.46875 19.152344 32.804688 19.460938 32.984375 C 19.773438 33.167969 20.160156 33.167969 20.472656 32.984375 C 20.78125 32.804688 20.972656 32.46875 20.96875 32.109375 C 20.96875 31.003906 20.402344 30.019531 19.558594 29.488281 C 19.148438 29.230469 18.683594 29.078125 18.199219 29.011719 L 18.640625 26.566406 C 19 24.589844 19.804688 22.9375 20.949219 21.800781 C 22.09375 20.664063 23.574219 20 25.511719 20 Z M 30 23 C 29.449219 23 29 23.449219 29 24 C 29 24.550781 29.449219 25 30 25 C 30.550781 25 31 24.550781 31 24 C 31 23.449219 30.550781 23 30 23 Z M 33.066406 36 L 34.453125 38.078125 C 34.167969 38.480469 34 38.96875 34 39.5 L 34 41.5 C 34 42.878906 35.121094 44 36.5 44 C 37.878906 44 39 42.878906 39 41.5 L 39 39.5 C 39 38.121094 37.878906 37 36.5 37 C 36.019531 37 35.570313 37.144531 35.1875 37.378906 L 34.265625 36 Z M 14 38 C 14 38 11 40 11 42.5 C 11 43.328125 11.671875 44 12.5 44 C 13.328125 44 14 42.828125 14 42 C 14 42.828125 14.671875 44 15.5 44 C 16.328125 44 17 43.328125 17 42.5 C 17 39.9375 14 38 14 38 Z M 36.5 38 C 37.324219 38 38 38.675781 38 39.5 L 38 41.5 C 38 42.324219 37.324219 43 36.5 43 C 35.675781 43 35 42.324219 35 41.5 L 35 39.5 C 35 38.675781 35.675781 38 36.5 38 Z "/>
</g>
</svg>