<?xml version="1.0" ?><!DOCTYPE svg  PUBLIC '-//W3C//DTD SVG 1.1//EN'  'http://www.w3.org/Graphics/SVG/1.1/DTD/svg11.dtd'><svg enable-background="new 0 0 512 512" height="512px" id="Layer_1" version="1.1" viewBox="0 0 512 512" width="512px" xml:space="preserve" xmlns="http://www.w3.org/2000/svg" xmlns:xlink="http://www.w3.org/1999/xlink"><g id="clubs_1_"><path d="M362.5,441.5c67.103,0,121.5-54.397,121.5-121.5s-54.397-121.5-121.5-121.5   c-0.772,0-1.541,0.015-2.31,0.029C371.177,180.261,377.5,158.87,377.5,136c0-67.103-54.397-121.5-121.5-121.5   S134.5,68.897,134.5,136c0,22.87,6.323,44.261,17.31,62.529c-0.769-0.014-1.538-0.029-2.31-0.029C82.397,198.5,28,252.897,28,320   s54.397,121.5,121.5,121.5c35.941,0,68.231-15.61,90.476-40.414c-3.032,31.803-19.743,73.414-86.476,73.414v30H255h108.5v-30   c-66.459,0-85.956-41.27-91.128-73.022C294.605,426.056,326.748,441.5,362.5,441.5z M454,320c0,50.453-41.047,91.5-91.5,91.5   S271,370.453,271,320c0-31.471,15.972-59.281,40.235-75.753c3.822-1.954,7.524-4.111,11.099-6.445   c12.133-5.953,25.765-9.302,40.167-9.302C412.953,228.5,454,269.547,454,320z M164.5,136c0-50.453,41.047-91.5,91.5-91.5   s91.5,41.047,91.5,91.5c0,31.471-15.972,59.281-40.235,75.753c-3.822,1.954-7.524,4.111-11.098,6.445   c-12.133,5.953-25.765,9.302-40.167,9.302s-28.034-3.349-40.167-9.302c-3.575-2.334-7.276-4.49-11.098-6.445   C180.472,195.281,164.5,167.471,164.5,136z M149.5,411.5C99.047,411.5,58,370.453,58,320s41.047-91.5,91.5-91.5   c14.402,0,28.034,3.349,40.167,9.302c3.575,2.334,7.276,4.491,11.099,6.445C225.028,260.719,241,288.529,241,320   C241,370.453,199.953,411.5,149.5,411.5z M276.654,474.5h-37.752c2.474-3,4.864-5.306,7.147-8.122   c4.451-5.487,8.134-11.367,11.173-17.248c3.388,6.01,7.437,12.08,12.269,17.674C271.772,469.443,274.159,471.5,276.654,474.5z" fill="#333333" id="clubs"/></g></svg>