<?xml version="1.0" ?><!DOCTYPE svg  PUBLIC '-//W3C//DTD SVG 1.1//EN'  'http://www.w3.org/Graphics/SVG/1.1/DTD/svg11.dtd'><svg enable-background="new 0 0 512 512" height="512px" id="Layer_1" version="1.1" viewBox="0 0 512 512" width="512px" xml:space="preserve" xmlns="http://www.w3.org/2000/svg" xmlns:xlink="http://www.w3.org/1999/xlink"><g id="diamond_1_"><path d="M448.774,244.514c0,0-42.147-21.972-104.163-97.41   c-62.016-75.438-80.079-126.706-80.079-126.706c-4.967-6.042-13.096-6.042-18.063,0c0,0-24.686,59.325-80.079,126.706   c-55.393,67.381-104.163,97.41-104.163,97.41c-4.967,6.042-4.967,15.93,0,21.972c0,0,50.576,32.226,104.163,97.41   c53.587,65.184,80.079,126.706,80.079,126.706c4.967,6.042,13.096,6.042,18.063,0c0,0,15.655-48.339,80.079-126.706   s104.163-97.41,104.163-97.41C453.742,260.444,453.742,250.556,448.774,244.514z M321.438,344.845   c-32.668,39.736-53.589,72.553-66.551,96.055c-13.983-25.127-35.683-60-65.323-96.055c-35.752-43.489-70.295-73.133-91.17-89.246   c20.667-15.835,54.652-45.022,91.17-89.443c30.257-36.805,51.788-71.3,65.56-96.114c13.136,23.804,34.178,57.024,66.314,96.114   c38.299,46.589,69.623,74.081,89.663,89.201C391.23,270.256,360.379,297.475,321.438,344.845z" fill="#B9121B" id="diamond"/></g></svg>