<?xml version="1.0" ?><!DOCTYPE svg  PUBLIC '-//W3C//DTD SVG 1.1//EN'  'http://www.w3.org/Graphics/SVG/1.1/DTD/svg11.dtd'><svg enable-background="new 0 0 512 512" height="512px" id="Layer_1" version="1.1" viewBox="0 0 512 512" width="512px" xml:space="preserve" xmlns="http://www.w3.org/2000/svg" xmlns:xlink="http://www.w3.org/1999/xlink"><g id="cards"><path d="M136.047,370.775L98.669,381.35c-1.32,0.374-2.677,0.563-4.031,0.563c-6.711,0-12.667-4.488-14.485-10.913   L28.716,189.194c-1.082-3.824-0.595-7.867,1.372-11.385c1.966-3.518,5.154-6.051,8.978-7.132l65.229-18.454   c0.197-5.888,1.693-11.61,4.386-16.83l-73.698,20.851c-15.877,4.492-25.192,21.157-20.7,37.034l51.437,181.806   c4.492,15.877,21.157,25.192,37.034,20.7l52.898-14.966C148.164,379.353,141.415,375.808,136.047,370.775z" fill="#333333"/><path d="M121.445,324.198c-1.1,0.42-2.271,0.813-3.531,1.168l2.333,8.282l2.1-0.592L121.445,324.198z" fill="#333333"/><path d="M108.175,194c-16.81,5.941-26.346,23.993-21.442,41.401c1.741,6.181,5.079,11.481,9.44,15.582   c-0.209,0.055-0.418,0.109-0.627,0.168c-18.136,5.109-28.697,23.954-23.587,42.09c5.109,18.136,23.954,28.697,42.09,23.587   c2.247-0.633,4.378-1.487,6.388-2.517L108.175,194z" fill="#333333"/><path d="M199.037,353.135c-0.028-0.035-0.054-0.073-0.082-0.108l-34.012,3.431c-0.505,0.052-1.017,0.042-1.52,0.042   c0,0-0.001,0-0.001,0c-7.598,0-14.152-5.886-14.922-13.444l-19.157-187.95c-0.839-8.229,5.173-15.596,13.401-16.434l69.801-7.11   c1.345-5.909,3.972-11.287,7.569-15.847l-78.891,8.042c-16.415,1.673-28.477,16.473-26.804,32.888l19.157,187.968   c1.673,16.415,16.472,28.477,32.887,26.804l51.232-5.221C210.408,363.782,203.953,359.304,199.037,353.135z" fill="#333333"/><path d="M195.475,280.167l12.684-112.13c-0.937,0.154-1.819,0.702-2.439,1.651c0,0-5.556,18.981-20.235,41.461   c-14.679,22.48-28.59,33.309-28.59,33.309c-1.316,2.016-0.984,5.041,0.74,6.722c0,0,16.559,8.157,35.147,26.296   C193.702,278.375,194.596,279.272,195.475,280.167z" fill="#B9121B"/><path d="M274.431,359.026c-2.236-3.54-3.872-7.334-4.906-11.262l-40.917-4.629   c-3.948-0.446-7.506-2.428-10.017-5.58c-2.511-3.151-3.648-7.062-3.202-11.011l21.238-187.744   c0.845-7.466,7.392-13.314,14.906-13.314c0.558,0,1.125,0.032,1.685,0.095l62.484,7.068c3.417-5.564,8.15-10.211,13.709-13.545   l-74.507-8.428c-16.395-1.855-31.327,10.042-33.182,26.438l-21.237,187.745c-1.855,16.395,10.042,31.327,26.438,33.182   l51.045,5.774C276.684,362.321,275.502,360.723,274.431,359.026z" fill="#333333"/><path d="M276.299,297.466c-2.849,0.517-6.159,0.606-10.023,0.114l-1.117,8.78l8.876,1.13L276.299,297.466z" fill="#333333"/><path d="M278.935,285.793l23.55-104.262l-48.728,37.726c-7.505,5.999-15.877,15.222-17.331,26.646   c-2.509,19.713,11.439,37.727,31.152,40.236C271.447,286.632,275.273,286.485,278.935,285.793z" fill="#333333"/><path d="M477.16,151.389l-120.702-27.263c-16.095-3.635-32.237,6.559-35.872,22.653l-41.628,184.299   c-3.635,16.095,6.559,32.237,22.653,35.872l120.702,27.263c16.095,3.635,32.237-6.559,35.872-22.653l41.628-184.299   C503.449,171.167,493.255,155.025,477.16,151.389z M485.183,183.957l-41.629,184.299c-1.53,6.775-7.697,11.694-14.663,11.694   c-0.001,0-0.001,0-0.001,0c-1.093,0-2.193-0.124-3.272-0.367l-120.701-27.265c-3.876-0.875-7.195-3.233-9.348-6.641   c-2.151-3.407-2.854-7.419-1.979-11.295l41.629-184.299c1.53-6.776,7.697-11.694,14.665-11.694c1.091,0,2.191,0.124,3.271,0.367   l120.702,27.263c3.876,0.875,7.195,3.234,9.348,6.642C485.354,176.07,486.058,180.081,485.183,183.957z" fill="#333333"/><path d="M429.362,223.545c-11.388-2.648-22.769,0.433-31.127,7.358   c-4.445-9.903-13.299-17.688-24.688-20.336c-19.356-4.501-38.695,7.542-43.196,26.898c-2.608,11.217,2.036,22.775,6.987,31.009   l37.979,60.991l60.991-37.979c8.076-5.205,17.343-13.528,19.951-24.745C460.76,247.385,448.718,228.046,429.362,223.545z" fill="#B9121B" id="hearts_4_"/></g></svg>