<?xml version="1.0" ?><!DOCTYPE svg  PUBLIC '-//W3C//DTD SVG 1.1//EN'  'http://www.w3.org/Graphics/SVG/1.1/DTD/svg11.dtd'><svg enable-background="new 0 0 512 512" height="512px" id="Layer_1" version="1.1" viewBox="0 0 512 512" width="512px" xml:space="preserve" xmlns="http://www.w3.org/2000/svg" xmlns:xlink="http://www.w3.org/1999/xlink"><g id="heart"><path d="M358.038,49.5c-41.639,0-78.632,19.865-102.038,50.63   C232.594,69.365,195.601,49.5,153.962,49.5c-70.77,0-128.141,57.371-128.141,128.141c0,41.013,25.432,77.359,49.247,101.927   L256,460.5l180.932-180.932c23.814-24.568,49.247-60.914,49.247-101.927C486.179,106.871,428.808,49.5,358.038,49.5z    M415.547,258.526L256,418.073L96.453,258.526c-15.25-15.768-40.632-47.095-40.632-80.885c0-54.115,44.026-98.141,98.141-98.141   c30.916,0,59.405,14.14,78.163,38.794L256,149.677l23.875-31.383C298.633,93.64,327.121,79.5,358.038,79.5   c54.115,0,98.141,44.026,98.141,98.141C456.179,211.432,430.798,242.759,415.547,258.526z" fill="#B9121B" id="hearts"/></g></svg>