<?xml version="1.0" ?><!DOCTYPE svg  PUBLIC '-//W3C//DTD SVG 1.1//EN'  'http://www.w3.org/Graphics/SVG/1.1/DTD/svg11.dtd'><svg enable-background="new 0 0 512 512" height="512px" id="Layer_1" version="1.1" viewBox="0 0 512 512" width="512px" xml:space="preserve" xmlns="http://www.w3.org/2000/svg" xmlns:xlink="http://www.w3.org/1999/xlink"><g id="spade"><path d="M486.179,297.359c0-41.013-25.433-77.359-49.247-101.927L256,14.5L75.068,195.432   C51.253,220,25.821,256.346,25.821,297.359c0,70.77,57.371,128.141,128.141,128.141c33.15,0,63.347-12.6,86.096-33.258   C237.24,424.147,220.823,466.5,153.5,466.5v30H255h108.5v-30c-67.151,0-86.359-42.135-91.287-74.012   C294.931,413,325.02,425.5,358.038,425.5C428.808,425.5,486.179,368.129,486.179,297.359z M276.654,466.5h-37.752   c2.474-3,4.864-5.306,7.147-8.122c4.451-5.487,8.134-11.367,11.173-17.248c3.388,6.01,7.437,12.08,12.269,17.674   C271.772,461.443,274.159,463.5,276.654,466.5z M279.875,356.706L256,325.323l-23.875,31.383   c-18.758,24.654-47.247,38.794-78.163,38.794c-54.115,0-98.141-44.026-98.141-98.141c0-33.79,25.382-65.117,40.632-80.885   L256,56.927l159.547,159.547c15.251,15.767,40.632,47.094,40.632,80.885c0,54.115-44.026,98.141-98.141,98.141   C327.121,395.5,298.633,381.36,279.875,356.706z" fill="#333333" id="spades"/></g></svg>