<?xml version="1.0" ?><!DOCTYPE svg  PUBLIC '-//W3C//DTD SVG 1.1//EN'  'http://www.w3.org/Graphics/SVG/1.1/DTD/svg11.dtd'><svg enable-background="new 0 0 512 512" height="512px" id="Layer_1" version="1.1" viewBox="0 0 512 512" width="512px" xml:space="preserve" xmlns="http://www.w3.org/2000/svg" xmlns:xlink="http://www.w3.org/1999/xlink"><g id="playing_x5F_cards"><path d="M285.5,119.5h-219c-16.569,0-30,13.431-30,30v322c0,16.569,13.431,30,30,30h219c16.569,0,30-13.431,30-30   v-322C315.5,132.931,302.069,119.5,285.5,119.5z M300.5,471.5c0,8.271-6.729,15-15,15h-219c-8.271,0-15-6.729-15-15v-322   c0-8.271,6.729-15,15-15h219c8.271,0,15,6.729,15,15V471.5z" fill="#333333"/><path d="M471.897,59.026L259.241,8.802c-16.058-3.793-32.3,6.243-36.092,22.301L205.814,104.5h15.261l16.672-69.95   c1.581-6.693,7.735-11.55,14.635-11.55c1.14,0,2.287,0.135,3.411,0.4l212.656,50.225c3.867,0.913,7.164,3.304,9.282,6.732   s2.782,7.446,1.868,11.313l-74.012,313.38c-1.58,6.691-7.735,11.55-14.635,11.55c-1.141,0-2.288-0.135-3.411-0.4L330.5,401.325   v16.815l53.594,12.658c16.058,3.793,32.3-6.243,36.092-22.301l74.012-313.379C497.991,79.06,487.956,62.818,471.897,59.026z" fill="#333333"/><path d="M274.65,74.07l-7.189,30.43h18.04c24.813,0,45,20.187,45,45v206.989l38.191,9.019l60.24-254.983   L274.65,74.07z" fill="#333333"/><path d="M210.265,252.006c-13.676,0-25.827,6.525-33.515,16.63   c-7.688-10.105-19.838-16.63-33.515-16.63c-23.245,0-42.088,18.844-42.088,42.088c0,13.471,8.353,25.409,16.175,33.478L176.75,387   l59.428-59.428c7.822-8.069,16.175-20.007,16.175-33.478C252.353,270.85,233.509,252.006,210.265,252.006z" fill="#B9121B" id="hearts_1_"/><path d="M108.184,165.006c-3.748,0-7.078,1.788-9.184,4.557c-2.107-2.769-5.436-4.557-9.184-4.557   c-6.37,0-11.534,5.164-11.534,11.534c0,3.692,2.289,6.963,4.433,9.174L99,202l16.286-16.286c2.143-2.211,4.433-5.483,4.433-9.174   C119.718,170.17,114.554,165.006,108.184,165.006z" fill="#B9121B" id="hearts_2_"/><path d="M263.684,460c-3.748,0-7.078-1.788-9.184-4.557c-2.107,2.769-5.436,4.557-9.184,4.557   c-6.37,0-11.534-5.164-11.534-11.534c0-3.692,2.289-6.963,4.433-9.174l16.286-16.286l16.286,16.286   c2.143,2.211,4.433,5.483,4.433,9.174C275.218,454.836,270.054,460,263.684,460z" fill="#B9121B" id="hearts_3_"/></g></svg>